<?xml version="1.0" encoding="utf-8"?>
<!-- Generator: Adobe Illustrator 19.1.0, SVG Export Plug-In . SVG Version: 6.00 Build 0)  -->
<svg version="1.1" id="Layer_1" xmlns="http://www.w3.org/2000/svg" xmlns:xlink="http://www.w3.org/1999/xlink" x="0px" y="0px"
	 viewBox="-121 61.7 296.3 149.3" style="enable-background:new -121 61.7 296.3 149.3;" xml:space="preserve">
<style type="text/css">
	.st0{font-family:'ArialMT';}
	.st1{font-size:10px;}
	.st2{enable-background:new    ;}
	.st3{font-family:'Arial-BoldMT';}
	.st4{font-size:8px;}
	.st5{fill:none;stroke:#000000;stroke-width:0.25;stroke-miterlimit:10;}
	.st6{fill:none;stroke:#8B5E3C;stroke-width:0.25;stroke-miterlimit:10;}
	.st7{fill:#8B5E3C;stroke:#8B5E3C;stroke-width:0.15;stroke-miterlimit:10;}
	.st8{fill:#8B5E3C;}
	.st9{fill:#E62A8A;stroke:#E62A8A;stroke-width:0.15;stroke-miterlimit:10;}
	.st10{fill:none;stroke:#E62A8A;stroke-width:0.25;stroke-miterlimit:10;}
	.st11{fill:#E62A8A;}
	.st12{opacity:0.71;}
	.st13{fill:#FFFFFF;stroke:#8B5E3C;stroke-width:0.25;stroke-miterlimit:10;}
	.st14{fill:#E62A8A;stroke:#8B5E3C;stroke-width:0.25;stroke-miterlimit:10;}
	.st15{fill:#FFFFFF;stroke:#E62A8A;stroke-width:0.25;stroke-miterlimit:10;}
	.st16{fill:#E62A8A;stroke:#E62A8A;stroke-width:0.25;stroke-miterlimit:10;}
	.st17{fill:#FFFFFF;stroke:#000000;stroke-width:0.25;stroke-miterlimit:10;}
	.st18{opacity:0.25;}
	.st19{opacity:0.5;}
	.st20{opacity:0.75;}
	.st21{fill:none;stroke:#7571B3;stroke-width:0.25;stroke-miterlimit:10;}
	.st22{fill:#7571B3;stroke:#7571B3;stroke-width:0.15;stroke-miterlimit:10;}
	.st23{fill:#7571B3;}
	.st24{fill:#D76127;stroke:#D76127;stroke-width:0.15;stroke-miterlimit:10;}
	.st25{fill:none;stroke:#D76127;stroke-width:0.25;stroke-miterlimit:10;}
	.st26{fill:#D76127;}
	.st27{fill:#189E77;stroke:#189E77;stroke-width:0.15;stroke-miterlimit:10;}
	.st28{fill:none;stroke:#189E77;stroke-width:0.25;stroke-miterlimit:10;}
	.st29{fill:#189E77;}
	.st30{fill:none;}
	.st31{clip-path:url(#SVGID_2_);}
	.st32{fill:#ED1C24;}
	.st33{fill:#FFFFFF;stroke:#ED1C24;stroke-width:0.25;stroke-miterlimit:10;}
	.st34{opacity:0.52;fill:#FFFFFF;stroke:#000000;stroke-width:0.25;stroke-miterlimit:10;enable-background:new    ;}
	.st35{opacity:0.52;fill:#FFFFFF;stroke:#ED1C24;stroke-width:0.25;stroke-miterlimit:10;enable-background:new    ;}
	.st36{fill:none;stroke:#ED1C24;stroke-width:0.25;stroke-miterlimit:10;}
	.st37{fill:#ED1C24;stroke:#ED1C24;stroke-width:0.15;stroke-miterlimit:10;}
	.st38{fill:none;stroke:#00A14B;stroke-width:0.25;stroke-miterlimit:10;}
	.st39{fill:#FFFFFF;stroke:#00A14B;stroke-width:0.25;stroke-miterlimit:10;}
	.st40{fill:#00A14B;stroke:#00A14B;stroke-width:0.25;stroke-miterlimit:10;}
	.st41{fill:#00A14B;}
	.st42{fill:#626467;}
	.st43{fill:#FFFFFF;}
	.st44{font-family:'DINAlternate-Bold';}
	.st45{font-size:5px;}
	.st46{fill:#FFFFFF;stroke:#000000;stroke-width:0.1;stroke-miterlimit:10;}
	.st47{fill:#FFFFFF;stroke:#080808;stroke-width:0.3042;stroke-miterlimit:10;}
	.st48{fill:#FFFFFF;stroke:#080808;stroke-width:0.3063;stroke-miterlimit:10;}
	.st49{font-size:4px;}
	.st50{fill:#7F4C2F;}
	.st51{fill:#71442A;}
	.st52{fill:#855032;}
	.st53{fill:#EED000;}
	.st54{fill:#8C5434;}
	.st55{fill:#824E31;}
	.st56{fill:#CBB200;}
	.st57{fill:#77482D;}
	.st58{fill:#673E26;}
	.st59{fill:#D1B700;}
	.st60{fill:#7B4A2E;}
	.st61{fill:#DFC300;}
	.st62{fill:#827100;}
	.st63{fill:#E5C800;}
	.st64{fill:#875132;}
	.st65{fill:#4C2E1C;}
	.st66{fill:#834F31;}
	.st67{fill:#855031;}
	.st68{fill:#827200;}
	.st69{fill:#CBB100;}
</style>
<g id="text">
</g>
<text transform="matrix(1 0 0 1 -95.7277 73.5651)" class="st0 st1">10 Simple Rules for Collaborative Lesson Development </text>
<text transform="matrix(1 0 0 1 106.4687 88.6747)" class="st2"><tspan x="0" y="0" class="st3 st4">4.</tspan><tspan x="6.7" y="0" class="st0 st4"> Encourage </tspan><tspan x="0" y="9.6" class="st0 st4">and empower </tspan><tspan x="0" y="19.2" class="st0 st4">contributors</tspan></text>
<g>
	<g>
		<g>
			<path class="st5" d="M148.1,115.8c-1.5-2-5.4-1.5-9.1,0.8"/>
			<g>
				<path d="M137.9,117.5c0.4-0.6,0.9-1.5,1.1-2.2l0.3,1.2l1,0.7C139.6,117.2,138.6,117.3,137.9,117.5z"/>
			</g>
		</g>
	</g>
	<g>
		<g>
			<path class="st5" d="M111.1,115.8c1.5-2,5.4-1.5,9.1,0.8"/>
			<g>
				<path d="M121.4,117.5c-0.7-0.2-1.7-0.3-2.4-0.2l1-0.7l0.3-1.2C120.5,116,120.9,116.9,121.4,117.5z"/>
			</g>
		</g>
	</g>
	<g>
		<circle class="st6" cx="157.5" cy="119.4" r="4"/>
		<ellipse transform="matrix(-0.7092 -0.705 0.705 -0.7092 187.8577 313.175)" class="st6" cx="158.5" cy="117.8" rx="1.1" ry="1"/>
		<ellipse transform="matrix(-0.7092 -0.705 0.705 -0.7092 182.714 311.556)" class="st6" cx="155.6" cy="118.1" rx="1.1" ry="1"/>
		<ellipse class="st7" cx="158.2" cy="117.6" rx="0.4" ry="0.4"/>
		<ellipse class="st7" cx="155" cy="117.8" rx="0.4" ry="0.4"/>
		<g>
			<g>
				<path class="st8" d="M152.6,121.6c0.9-2.1-1.8-2.6-1.8-0.8c0,0.2,0.2,0.4,0.4,0.5c2.9,1,2.7-3.3,0.4-2.1
					c-0.5,0.2-0.2,0.9,0.3,0.9c2,0.2,2.6-2.1,0.8-2.9c-0.3-0.1-0.6,0-0.7,0.3c-0.6,1.6,1.7,1.9,2.2,0.3c0.5-1.6-1.6-2.9-2.3-1.2
					c-0.2,0.4,0.1,0.8,0.6,0.7c1.9-0.4,3.1-1.6,3.7-3.4c0.1-0.4-0.3-0.7-0.6-0.6c-1,0.2-1.8,0.8-1.8,1.9c0,0.2,0.1,0.4,0.2,0.4
					c1.3,0.7,2.5-0.2,3.1-1.4c0.1-0.3,0.1-0.5-0.2-0.7c-0.1-0.1-0.2-0.1-0.3-0.2c-0.2-0.1-0.3-0.1-0.5,0c-1.5,0.7,0.1,2.4,1.2,2.5
					c1.3,0.1,2.8-1.1,1.7-2.3c-0.1-0.2-0.4-0.2-0.6-0.1c-0.6,0.5-0.8,1.1-0.1,1.6c1.2,0.9,2.9-0.4,3.6-1.3c0.3-0.4-0.1-1.1-0.6-0.8
					c-2.6,1.7,0.2,4.7,1.7,2.4c0.2-0.3,0-0.7-0.3-0.7c-3.1-0.8-1.9,5,0.2,2.7c-0.3-0.2-0.5-0.4-0.8-0.6c-0.5,1-1.3,2.9-0.1,3.7
					c0.1,0.1,0.4,0.1,0.5,0c0.6-0.4,0.7-0.9,0.8-1.6c0.1-0.4-0.3-0.9-0.7-0.6c-2,1.5,2.3,3.3,1.7-0.3c-0.1-0.5-0.7-0.4-0.9-0.1
					c-0.6,0.9-0.8,1.7-0.7,2.7c0,0.6,1,0.6,1,0c-0.1-0.8,0.1-1.6,0.6-2.2c-0.3,0-0.6-0.1-0.9-0.1c-0.1,0.3-0.2,0.6-0.2,0.9
					c-0.2-0.2-0.5-0.4-0.7-0.6c0.2,1,0.4,0.5,0.6-1.4c0.2-0.5-0.4-1-0.8-0.6c0.1-0.3,0.1-0.7,0.2-1c-0.1-0.2-0.2-0.5-0.3-0.7
					c-0.1-0.3-0.2-0.7-0.4-1c-0.2-0.3-0.4-0.5-0.6-0.8c-1.3,1.4-2.9,1.8-4.9,1.3c-0.1-0.2-0.1-0.5-0.2-0.7c-0.2,0.2-0.3,0.4-0.5,0.6
					c-0.2-0.2-0.4-0.4-0.6-0.6c-0.5,1.4-1.5,2.4-3,2.7c0.2,0.2,0.4,0.5,0.6,0.7c0.1,0.2,0.1,0.4,0.2,0.7c-0.2,0.1-0.5,0.2-0.7,0.3
					c-0.1,0.3-0.2,0.7-0.3,1c0.1,0.3,0.2,0.6,0.3,0.9c-0.1,0.4-0.3,0.7-0.4,1.1C151.5,121.7,152.4,122.2,152.6,121.6L152.6,121.6z"
					/>
			</g>
		</g>
		<g>
			<g>
				<path class="st8" d="M150.9,118.3c0.1,0,0.1,0.1,0.2,0.1c0.2,0.1,0.4,0.1,0.5,0c2.3-1.7-1.2-3.6-1.4-1.7
					c-0.1,1.8,4.1,1.3,2.7-1.6c-0.2,0.2-0.4,0.5-0.6,0.7c0.9,0.4,2.9-0.1,3-1.3c0.1-1.2-1.1-1.2-1.8-0.9c-0.5,0.2-0.4,0.9,0.1,1
					c1.3,0.1,2.2-0.4,2.8-1.5c0.2-0.3,0-0.6-0.3-0.7c-1-0.3-1.7-0.2-2.5,0.4c-0.2,0.2-0.4,0.6-0.1,0.8c1.6,1.3,3.2,0.5,4.6-0.7
					c0.3-0.2,0.1-0.8-0.2-0.8c-0.5-0.1-0.6-0.1-1,0.3c-0.2,0.2-0.2,0.5,0,0.7c0.8,0.9,1.5,1,2.6,0.5c-0.3-0.1-0.5-0.3-0.8-0.4
					c-0.3,2.4,2.6,2.9,3.3,0.7c0.2-0.6-0.6-0.9-0.9-0.4c-0.6,1-0.2,2.6,1,3.1c0.9,0.3,1.8-0.3,1.4-1.3c-0.2-0.5-0.8-0.5-1,0
					c-0.4,0.9-0.3,1.7-0.4,2.7c-0.1,0.8-0.6,1.6-0.4,2.4s0.8,1.2,1.5,0.6c0.5-0.5-0.2-1.2-0.7-0.7c-0.6,0.6-0.6,0.6-0.6,1.4
					c0,0.4,0.4,0.6,0.8,0.4c0.5-0.2,0.5-0.3,0.7-0.8c0.1-0.5-0.5-0.8-0.8-0.5c-0.5,0.5-0.5,0.5-0.8,1.1c-0.2,0.6,0.7,0.9,1,0.3
					c0.2-0.2,0.3-0.5,0.5-0.7c-0.3-0.2-0.6-0.3-0.8-0.5c-0.1,0.1-0.1,0.2-0.2,0.2c0.3,0.1,0.5,0.3,0.8,0.4c0.1-0.2,0.2-0.5,0.3-0.7
					c-0.2-0.2-0.5-0.5-0.7-0.7c1.4-1.4,0.4-3.2,1-4.7c-0.3,0-0.6,0-1,0c-0.2-0.5-0.4-1-0.6-1.6c-0.3-0.1-0.6-0.3-0.9-0.4
					c-0.4-0.1-0.9-0.3-1.3-0.4c0-0.4-0.5-0.6-0.8-0.4c-0.5,0.1-0.9,0.2-1.4,0.3c-0.1-0.3-0.1-0.6-0.2-0.8c-0.9,1-1.9,1.2-3.2,0.7
					c0,0.3-0.1,0.5-0.1,0.8c0.6-0.1,1.1-0.2,1.7-0.3c-0.1-0.2-0.2-0.5-0.3-0.7c-0.7,0.3-1.3,0.6-2,1c0,0.3,0.1,0.7,0.1,1
					c0.2,0.5-0.2,0.6-1.2,0.2c-0.4-0.2-0.7,0.4-0.6,0.7c-0.2,0.6-0.5,1.2-0.7,1.8C150.8,117.2,150.3,118,150.9,118.3L150.9,118.3z"
					/>
			</g>
		</g>
		<g>
			<g>
				<path class="st8" d="M151.9,117.4c-0.4,0.3-0.8,0.7-0.7,1.2c0,0.3,0.2,0.5,0.4,0.7c0.1,0.1,0.5,0.2,0.6,0.3c0.2,0.3,0,0.9,0,1.2
					c0,0.3,0.1,0.5,0.3,0.7c0.1,0.1,0.4,0.5,0.3,0.2c0.1,0.3-0.4,1.2-0.6,1.5c-0.2,0.6,0.7,0.9,1,0.3c0.2-0.5,0.6-1.3,0.6-1.8
					c0-0.6-0.5-0.9-0.6-1.6c0-0.4,0.2-0.8-0.1-1.2c-0.1-0.1-1.1-0.5-0.8-0.7C152.9,117.9,152.4,117,151.9,117.4L151.9,117.4z"/>
			</g>
		</g>
		<g>
			<path class="st8" d="M155.1,120.4c0,0,0.3,0.2,0.7,0.3c0.4,0.1,1,0.2,1.6,0.2c0.1,0,0.3,0,0.4-0.1c0.1,0,0.3-0.1,0.4-0.1
				c0.3-0.1,0.5-0.2,0.7-0.4c0.4-0.3,0.6-0.5,0.6-0.5s-0.1,0.3-0.4,0.7c-0.2,0.2-0.4,0.4-0.7,0.5c-0.1,0.1-0.3,0.1-0.5,0.2
				c-0.2,0.1-0.3,0.1-0.5,0.1c-0.3,0-0.7,0-1-0.1c-0.3-0.1-0.6-0.2-0.8-0.3C155.3,120.7,155.1,120.4,155.1,120.4z"/>
		</g>
		<g>
			<g>
				<path class="st8" d="M151.7,119.1c0.1,0,0.1,0.1,0.2,0.1c0.1,0.1,0.4,0.1,0.5,0c2.1-1.6-1.2-3.3-1.3-1.5
					c-0.1,1.8,3.6,1.1,2.4-1.5c-0.2,0.2-0.5,0.5-0.7,0.7c0.9,0.4,2.6,0,2.8-1.2c0.1-1.1-1.1-1.1-1.8-0.7c-0.5,0.3-0.2,0.9,0.3,0.9
					c1.1,0.1,1.9-0.4,2.4-1.3c0.2-0.3,0-0.6-0.3-0.7c-0.9-0.3-1.5-0.1-2.3,0.5c-0.2,0.2-0.2,0.5,0,0.7c1.4,1.2,2.8,0.5,4-0.6
					c0.3-0.2,0.1-0.7-0.2-0.8c-0.1,0-0.2,0-0.2-0.1c-0.2,0-0.4,0-0.5,0.1c-0.1,0.1-0.1,0.1-0.2,0.2c-0.2,0.2-0.2,0.5,0,0.7
					c0.7,0.8,1.4,0.9,2.3,0.5c-0.3-0.1-0.5-0.3-0.8-0.4c-0.2,2.1,2.3,2.7,2.9,0.6c0.2-0.5-0.6-0.9-0.9-0.4c-0.5,0.9-0.2,2.4,0.9,2.8
					c0.8,0.3,1.6-0.3,1.3-1.2c-0.2-0.5-0.8-0.5-1,0c-0.3,0.8-0.2,1.5-0.4,2.3c-0.1,0.7-0.5,1.4-0.3,2.2c0.2,0.7,0.8,1.2,1.4,0.6
					c0.4-0.5-0.3-1.2-0.7-0.7c-0.5,0.5-0.5,0.6-0.6,1.3c0,0.4,0.4,0.6,0.8,0.4s0.5-0.3,0.6-0.8s-0.5-0.8-0.8-0.5
					c-0.5,0.4-0.5,0.4-0.7,1s0.7,0.9,1,0.3c0.1-0.2,0.3-0.4,0.4-0.6c-0.3-0.2-0.6-0.3-0.8-0.5c0,0.1-0.1,0.1-0.1,0.2
					c0.3,0.1,0.5,0.3,0.8,0.4c0.1-0.2,0.2-0.4,0.3-0.6c-0.2-0.2-0.5-0.5-0.7-0.7c1.4-1.5,0.3-2.5,1-4.1c-0.3,0-0.6,0-1,0
					c-0.1-0.5-0.2-0.9-0.4-1.4c-0.3-0.1-0.6-0.3-0.9-0.4c-0.3-0.1-0.6-0.2-1-0.4c0-0.4-0.4-0.6-0.8-0.4c-0.3-0.1-0.7-0.2-1-0.3
					c0,0.2,0,0.5,0,0.7h-0.1c-0.1-0.3-0.1-0.6-0.2-0.8c-0.7,0.8-1.5,1-2.6,0.6c0,0.2,0,0.5,0,0.7c0.4-0.1,0.9-0.1,1.3-0.2
					c-0.1-0.2-0.2-0.5-0.3-0.7c-0.5,0.3-1.1,0.5-1.6,0.8c0.1,0.3,0.2,0.6,0.3,0.9c-0.3,0.1-0.7,0.1-1,0.2c-0.5-0.2-0.9,0.2-0.7,0.7
					c-0.2,0.5-0.3,1-0.5,1.5C151.7,118,151.2,118.9,151.7,119.1L151.7,119.1z"/>
			</g>
		</g>
		<g>
			<g>
				<path class="st8" d="M151.2,116.6c-0.4,0.3-0.8,0.7-0.7,1.2c0,0.3,0.2,0.5,0.4,0.7c0.1,0.1,0.5,0.2,0.6,0.3c0.2,0.3,0,0.9,0,1.2
					s0.1,0.5,0.3,0.7c0.1,0.1,0.4,0.5,0.3,0.2c0.1,0.3-0.4,1.2-0.6,1.5c-0.2,0.6,0.7,0.9,1,0.3c0.2-0.5,0.6-1.3,0.6-1.8
					c0-0.6-0.5-0.9-0.6-1.6c0-0.4,0.2-0.8-0.1-1.2c-0.1-0.1-1.1-0.5-0.8-0.7C152.3,117.1,151.8,116.2,151.2,116.6L151.2,116.6z"/>
			</g>
		</g>
	</g>
	<g>
		<ellipse class="st9" cx="107.3" cy="117.1" rx="0.4" ry="0.4"/>
		<circle class="st10" cx="105.7" cy="118.6" r="4"/>
		
			<ellipse transform="matrix(-0.7092 -0.705 0.705 -0.7092 99.7536 276.0977)" class="st10" cx="106.8" cy="117.5" rx="1.1" ry="1"/>
		
			<ellipse transform="matrix(-0.7092 -0.705 0.705 -0.7092 95.2941 274.9026)" class="st10" cx="104.3" cy="117.8" rx="1.1" ry="1"/>
		<g>
			<path class="st11" d="M103.3,119.5c0,0,0.3,0.3,0.9,0.6c0.3,0.2,0.6,0.3,1,0.4c0.2,0,0.4,0,0.6,0.1c0.2,0,0.4,0,0.6-0.1
				c0.2-0.1,0.4-0.1,0.6-0.2c0.2-0.1,0.3-0.2,0.5-0.3c0.3-0.2,0.6-0.4,0.8-0.7c0.4-0.4,0.7-0.8,0.7-0.8s-0.1,0.4-0.4,1
				c-0.2,0.3-0.4,0.6-0.7,0.8c-0.3,0.3-0.8,0.5-1.2,0.6c-0.2,0.1-0.5,0.1-0.7,0.1s-0.4-0.1-0.7-0.1c-0.4-0.1-0.7-0.3-1-0.5
				C103.5,119.9,103.3,119.5,103.3,119.5z"/>
		</g>
		<ellipse class="st9" cx="104.6" cy="117.4" rx="0.4" ry="0.4"/>
		<g>
			<path d="M102.5,113.4c1.2,0,2.3,0.4,3.4,1.2"/>
			<path class="st11" d="M102.5,113.4c0,0,0.2-0.2,0.6-0.2c0.4-0.1,0.9-0.1,1.4,0.1c0.5,0.2,0.9,0.5,1.1,0.8
				c0.2,0.3,0.3,0.6,0.3,0.6s-0.3,0-0.6-0.1c-0.3-0.1-0.8-0.2-1.2-0.3c-0.4-0.2-0.8-0.3-1.1-0.5
				C102.7,113.6,102.5,113.4,102.5,113.4z"/>
		</g>
		<g>
			<path d="M99.2,115.3c2-0.7,4.2-0.9,6.5-0.6"/>
			<path class="st11" d="M99.2,115.3c0,0,0.3-0.3,0.9-0.6c0.6-0.3,1.4-0.5,2.3-0.6c0.9-0.1,1.7,0,2.3,0.2c0.6,0.2,1,0.4,1,0.4
				s-0.4,0.1-1,0.2s-1.4,0.2-2.2,0.2c-0.8,0.1-1.6,0.1-2.2,0.2C99.7,115.3,99.2,115.3,99.2,115.3z"/>
		</g>
		<g>
			<path d="M100.1,116.3c2-0.3,3.9-0.9,5.6-1.7"/>
			<path class="st11" d="M100.1,116.3c0,0,0.3-0.2,0.8-0.4s1.2-0.5,1.9-0.7c0.7-0.2,1.4-0.4,1.9-0.5c0.5-0.1,0.9-0.1,0.9-0.1
				s-0.3,0.3-0.7,0.6c-0.5,0.3-1.1,0.7-1.9,0.9c-0.7,0.2-1.5,0.3-2,0.3S100.1,116.3,100.1,116.3z"/>
		</g>
	</g>
	<g>
		<g class="st12">
			<polygon class="st13" points="130.9,122.5 136,116.6 129.7,116.5 124.7,122.4 			"/>
			<path class="st14" d="M133.5,118c-0.1-0.3-0.3-0.3-0.3-0.3c-0.2,0-0.2,0.2-0.5,0.3c-0.3,0.1-0.5,0-0.6-0.1
				c-0.1,0-0.1-0.1-0.2-0.2c-0.2-0.1-0.4-0.2-0.6-0.2c-0.1,0.1-0.1,0.2-0.3,0.2c-0.2,0.1-0.5-0.2-0.6-0.3c-0.2-0.2-0.2-0.3-0.3-0.3
				s-0.2,0.1-0.4,0.4"/>
			<path class="st13" d="M132.8,119c-0.1-0.3-0.3-0.3-0.3-0.3c-0.2,0-0.2,0.2-0.5,0.3c-0.3,0.1-0.5,0-0.6-0.1
				c-0.1,0-0.1-0.1-0.2-0.2c-0.2-0.1-0.4-0.2-0.6-0.2c-0.1,0.1-0.1,0.2-0.3,0.2c-0.2,0.1-0.5-0.2-0.6-0.3c-0.2-0.2-0.2-0.3-0.3-0.3
				s-0.2,0.1-0.4,0.4"/>
			<path class="st13" d="M131.5,120.3c-0.1-0.3-0.3-0.3-0.3-0.3c-0.2,0-0.2,0.2-0.5,0.3c-0.3,0.1-0.5,0-0.6-0.1
				c-0.1,0-0.1-0.1-0.2-0.2c-0.2-0.1-0.4-0.2-0.6-0.2c-0.1,0.1-0.1,0.2-0.3,0.2c-0.2,0.1-0.5-0.2-0.6-0.3c-0.2-0.2-0.2-0.3-0.3-0.3
				s-0.2,0.1-0.4,0.4"/>
			<path class="st13" d="M130.6,121.5c-0.1-0.3-0.3-0.3-0.3-0.3c-0.2,0-0.2,0.2-0.5,0.3c-0.3,0.1-0.5,0-0.6-0.1
				c-0.1,0-0.1-0.1-0.2-0.2c-0.2-0.1-0.4-0.2-0.6-0.2c-0.1,0.1-0.1,0.2-0.3,0.2c-0.2,0.1-0.5-0.2-0.6-0.3c-0.2-0.2-0.2-0.3-0.3-0.3
				s-0.2,0.1-0.4,0.4"/>
		</g>
		<g class="st12">
			<polygon class="st15" points="128.8,121.1 134,115.2 127.6,115.1 122.7,121 			"/>
			<path class="st16" d="M131.5,116.6c-0.1-0.3-0.3-0.3-0.3-0.3c-0.2,0-0.2,0.2-0.5,0.3c-0.3,0.1-0.5,0-0.6-0.1
				c-0.1,0-0.1-0.1-0.2-0.2c-0.2-0.1-0.4-0.2-0.6-0.2c-0.1,0.1-0.1,0.2-0.3,0.2c-0.2,0.1-0.5-0.2-0.6-0.3c-0.2-0.2-0.2-0.3-0.3-0.3
				s-0.2,0.1-0.4,0.4"/>
			<path class="st15" d="M130.7,117.6c-0.1-0.3-0.3-0.3-0.3-0.3c-0.2,0-0.2,0.2-0.5,0.3s-0.5,0-0.6-0.1c-0.1,0-0.1-0.1-0.2-0.2
				c-0.2-0.1-0.4-0.2-0.6-0.2c-0.1,0.1-0.1,0.2-0.3,0.2c-0.2,0.1-0.5-0.2-0.6-0.3c-0.2-0.2-0.2-0.3-0.3-0.3s-0.2,0.1-0.4,0.4"/>
			<path class="st15" d="M129.5,118.9c-0.1-0.3-0.3-0.3-0.3-0.3c-0.2,0-0.2,0.2-0.5,0.3c-0.3,0.1-0.5,0-0.6-0.1
				c-0.1,0-0.1-0.1-0.2-0.2c-0.2-0.1-0.4-0.2-0.6-0.2c-0.1,0.1-0.1,0.2-0.3,0.2c-0.2,0.1-0.5-0.2-0.6-0.3c-0.2-0.2-0.2-0.3-0.3-0.3
				s-0.2,0.1-0.4,0.4"/>
			<path class="st15" d="M128.6,120.1c-0.1-0.3-0.3-0.3-0.3-0.3c-0.2,0-0.2,0.2-0.5,0.3c-0.3,0.1-0.5,0-0.6-0.1
				c-0.1,0-0.1-0.1-0.2-0.2c-0.2-0.1-0.4-0.2-0.6-0.2c-0.1,0.1-0.1,0.2-0.3,0.2c-0.2,0.1-0.5-0.2-0.6-0.3c-0.2-0.2-0.2-0.3-0.3-0.3
				s-0.2,0.1-0.4,0.4"/>
		</g>
		<polygon class="st17" points="127.5,119.5 132.7,113.6 126.4,113.5 121.4,119.4 		"/>
		<path class="st13" d="M130.2,115c-0.1-0.3-0.3-0.3-0.3-0.3c-0.2,0-0.2,0.2-0.5,0.3c-0.3,0.1-0.5,0-0.6-0.1c-0.1,0-0.1-0.1-0.2-0.2
			c-0.2-0.1-0.4-0.2-0.6-0.2c-0.1,0.1-0.1,0.2-0.3,0.2c-0.2,0.1-0.5-0.2-0.6-0.3c-0.2-0.2-0.2-0.3-0.3-0.3s-0.2,0.1-0.4,0.4"/>
		<path class="st13" d="M129.4,116c-0.1-0.3-0.3-0.3-0.3-0.3c-0.2,0-0.2,0.2-0.5,0.3c-0.3,0.1-0.5,0-0.6-0.1c-0.1,0-0.1-0.1-0.2-0.2
			c-0.2-0.1-0.4-0.2-0.6-0.2c-0.1,0.1-0.1,0.2-0.3,0.2c-0.2,0.1-0.5-0.2-0.6-0.3c-0.2-0.2-0.2-0.3-0.3-0.3s-0.2,0.1-0.4,0.4"/>
		<path class="st15" d="M127.3,118.5c-0.1-0.3-0.3-0.3-0.3-0.3c-0.2,0-0.2,0.2-0.5,0.3c-0.3,0.1-0.5,0-0.6-0.1
			c-0.1,0-0.1-0.1-0.2-0.2c-0.2-0.1-0.4-0.2-0.6-0.2c-0.1,0.1-0.1,0.2-0.3,0.2c-0.2,0.1-0.5-0.2-0.6-0.3c-0.2-0.2-0.2-0.3-0.3-0.3
			s-0.2,0.1-0.4,0.4"/>
		<path class="st15" d="M128.3,117.2c-0.1-0.3-0.3-0.3-0.3-0.3c-0.2,0-0.2,0.2-0.5,0.3s-0.5,0-0.6-0.1c-0.1,0-0.1-0.1-0.2-0.2
			c-0.2-0.1-0.4-0.2-0.6-0.2c-0.1,0.1-0.1,0.2-0.3,0.2c-0.2,0.1-0.5-0.2-0.6-0.3c-0.2-0.2-0.2-0.3-0.3-0.3s-0.2,0.1-0.4,0.4"/>
	</g>
</g>
<text transform="matrix(1 0 0 1 26.9164 88.6744)" class="st2"><tspan x="0" y="0" class="st3 st4">3.</tspan><tspan x="6.7" y="0" class="st0 st4"> Teach best </tspan><tspan x="2.5" y="9.6" class="st0 st4">practices for </tspan><tspan x="-11.3" y="19.2" class="st0 st4">lesson development </tspan></text>
<text transform="matrix(1 0 0 1 -40.9628 88.6748)" class="st2"><tspan x="0" y="0" class="st3 st4">2.</tspan><tspan x="6.7" y="0" class="st0 st4"> Make </tspan><tspan x="0" y="9.6" class="st0 st4">lessons</tspan><tspan x="0" y="19.2" class="st0 st4">modular  </tspan></text>
<g>
	<g class="st18">
		<polygon class="st17" points="-23.3,123 -18.9,118 -24.3,117.9 -28.5,122.9 		"/>
		<path class="st17" d="M-21,119.1c-0.1-0.2-0.2-0.3-0.3-0.3c-0.1,0-0.2,0.2-0.4,0.2c-0.2,0.1-0.4,0-0.5,0s-0.1-0.1-0.2-0.1
			c-0.2-0.1-0.4-0.2-0.5-0.1c-0.1,0-0.1,0.2-0.2,0.2c-0.2,0.1-0.4-0.1-0.5-0.2c-0.2-0.1-0.2-0.2-0.3-0.2c-0.1,0-0.2,0-0.4,0.3"/>
		<path class="st17" d="M-21.7,120c-0.1-0.2-0.2-0.3-0.3-0.3c-0.1,0-0.2,0.2-0.4,0.2c-0.2,0.1-0.4,0-0.5,0s-0.1-0.1-0.2-0.1
			c-0.2-0.1-0.4-0.2-0.5-0.1c-0.1,0-0.1,0.2-0.2,0.2c-0.2,0.1-0.4-0.1-0.5-0.2c-0.2-0.1-0.2-0.2-0.3-0.2c-0.1,0-0.2,0-0.4,0.3"/>
		<path class="st17" d="M-22.7,121.1c-0.1-0.2-0.2-0.3-0.3-0.3c-0.1,0-0.2,0.2-0.4,0.2c-0.2,0.1-0.4,0-0.5,0s-0.1-0.1-0.2-0.1
			c-0.2-0.1-0.4-0.2-0.5-0.1c-0.1,0-0.1,0.2-0.2,0.2c-0.2,0.1-0.4-0.1-0.5-0.2c-0.2-0.1-0.2-0.2-0.3-0.2c-0.1,0-0.2,0-0.4,0.3"/>
		<path class="st17" d="M-23.5,122.1c-0.1-0.2-0.2-0.3-0.3-0.3c-0.1,0-0.2,0.2-0.4,0.2c-0.2,0.1-0.4,0-0.5,0s-0.1-0.1-0.2-0.1
			c-0.2-0.1-0.4-0.2-0.5-0.1c-0.1,0-0.1,0.2-0.2,0.2c-0.2,0.1-0.4-0.1-0.5-0.2c-0.2-0.1-0.2-0.2-0.3-0.2c-0.1,0-0.2,0-0.4,0.3"/>
	</g>
	<g class="st19">
		<polygon class="st17" points="-24.8,121.2 -20.5,116.1 -25.8,116.1 -30,121.1 		"/>
		<path class="st17" d="M-22.6,117.3c-0.1-0.2-0.2-0.3-0.3-0.3c-0.1,0-0.2,0.2-0.4,0.2c-0.2,0.1-0.4,0-0.5,0s-0.1-0.1-0.2-0.1
			c-0.2-0.1-0.4-0.2-0.5-0.1c-0.1,0-0.1,0.2-0.2,0.2c-0.2,0.1-0.4-0.1-0.5-0.2c-0.2-0.1-0.2-0.2-0.3-0.2c-0.1,0-0.2,0-0.4,0.3"/>
		<path class="st17" d="M-23.2,118.2c-0.1-0.2-0.2-0.3-0.3-0.3c-0.1,0-0.2,0.2-0.4,0.2c-0.2,0.1-0.4,0-0.5,0s-0.1-0.1-0.2-0.1
			c-0.2-0.1-0.4-0.2-0.5-0.1c-0.1,0-0.1,0.2-0.2,0.2c-0.2,0.1-0.4-0.1-0.5-0.2c-0.2-0.1-0.2-0.2-0.3-0.2c-0.1,0-0.2,0-0.4,0.3"/>
		<path class="st17" d="M-24.3,119.3c-0.1-0.2-0.2-0.3-0.3-0.3c-0.1,0-0.2,0.2-0.4,0.2c-0.2,0.1-0.4,0-0.5,0s-0.1-0.1-0.2-0.1
			c-0.2-0.1-0.4-0.2-0.5-0.1c-0.1,0-0.1,0.2-0.2,0.2c-0.2,0.1-0.4-0.1-0.5-0.2c-0.2-0.1-0.2-0.2-0.3-0.2c-0.1,0-0.2,0-0.4,0.3"/>
		<path class="st17" d="M-25,120.3c-0.1-0.2-0.2-0.3-0.3-0.3c-0.1,0-0.2,0.2-0.4,0.2c-0.2,0.1-0.4,0-0.5,0s-0.1-0.1-0.2-0.1
			c-0.2-0.1-0.4-0.2-0.5-0.1c-0.1,0-0.1,0.2-0.2,0.2c-0.2,0.1-0.4-0.1-0.5-0.2c-0.2-0.1-0.2-0.2-0.3-0.2c-0.1,0-0.2,0-0.4,0.3"/>
	</g>
	<g class="st20">
		<polygon class="st17" points="-25.6,119.4 -21.2,114.4 -26.6,114.3 -30.7,119.3 		"/>
		<path class="st17" d="M-23.3,115.6c-0.1-0.2-0.2-0.3-0.3-0.3c-0.1,0-0.2,0.2-0.4,0.2c-0.2,0.1-0.4,0-0.5,0s-0.1-0.1-0.2-0.1
			c-0.2-0.1-0.4-0.2-0.5-0.1c-0.1,0-0.1,0.2-0.2,0.2c-0.2,0.1-0.4-0.1-0.5-0.2c-0.2-0.1-0.2-0.2-0.3-0.2c-0.1,0-0.2,0-0.4,0.3"/>
		<path class="st17" d="M-24,116.4c-0.1-0.2-0.2-0.3-0.3-0.3c-0.1,0-0.2,0.2-0.4,0.2c-0.2,0.1-0.4,0-0.5,0s-0.1-0.1-0.2-0.1
			c-0.2-0.1-0.4-0.2-0.5-0.1c-0.1,0-0.1,0.2-0.2,0.2c-0.2,0.1-0.4-0.1-0.5-0.2c-0.2-0.1-0.2-0.2-0.3-0.2c-0.1,0-0.2,0-0.4,0.3"/>
		<path class="st17" d="M-25,117.5c-0.1-0.2-0.2-0.3-0.3-0.3c-0.1,0-0.2,0.2-0.4,0.2c-0.2,0.1-0.4,0-0.5,0s-0.1-0.1-0.2-0.1
			c-0.2-0.1-0.4-0.2-0.5-0.1c-0.1,0-0.1,0.2-0.2,0.2c-0.2,0.1-0.4-0.1-0.5-0.2c-0.2-0.1-0.2-0.2-0.3-0.2c-0.1,0-0.2,0-0.4,0.3"/>
		<path class="st17" d="M-25.8,118.5c-0.1-0.2-0.2-0.3-0.3-0.3c-0.1,0-0.2,0.2-0.4,0.2c-0.2,0.1-0.4,0-0.5,0s-0.1-0.1-0.2-0.1
			c-0.2-0.1-0.4-0.2-0.5-0.1c-0.1,0-0.1,0.2-0.2,0.2c-0.2,0.1-0.4-0.1-0.5-0.2c-0.2-0.1-0.2-0.2-0.3-0.2c-0.1,0-0.2,0-0.4,0.3"/>
	</g>
	<g>
		<polygon class="st17" points="-26.9,118.2 -22.6,113.2 -27.9,113.1 -32.1,118.1 		"/>
		<path class="st17" d="M-24.7,114.4c-0.1-0.2-0.2-0.3-0.3-0.3c-0.1,0-0.2,0.2-0.4,0.2c-0.2,0.1-0.4,0-0.5,0s-0.1-0.1-0.2-0.1
			c-0.2-0.1-0.4-0.2-0.5-0.1c-0.1,0-0.1,0.2-0.2,0.2c-0.2,0.1-0.4-0.1-0.5-0.2c-0.2-0.1-0.2-0.2-0.3-0.2c-0.1,0-0.2,0-0.4,0.3"/>
		<path class="st17" d="M-25.3,115.3c-0.1-0.2-0.2-0.3-0.3-0.3c-0.1,0-0.2,0.2-0.4,0.2c-0.2,0.1-0.4,0-0.5,0s-0.1-0.1-0.2-0.1
			c-0.2-0.1-0.4-0.2-0.5-0.1c-0.1,0-0.1,0.2-0.2,0.2c-0.2,0.1-0.4-0.1-0.5-0.2c-0.2-0.1-0.2-0.2-0.3-0.2c-0.1,0-0.2,0-0.4,0.3"/>
		<path class="st17" d="M-26.4,116.3c-0.1-0.2-0.2-0.3-0.3-0.3c-0.1,0-0.2,0.2-0.4,0.2c-0.2,0.1-0.4,0-0.5,0s-0.1-0.1-0.2-0.1
			c-0.2-0.1-0.4-0.2-0.5-0.1c-0.1,0-0.1,0.2-0.2,0.2c-0.2,0.1-0.4-0.1-0.5-0.2c-0.2-0.1-0.2-0.2-0.3-0.2c-0.1,0-0.2,0-0.4,0.3"/>
		<path class="st17" d="M-27.1,117.4c-0.1-0.2-0.2-0.3-0.3-0.3c-0.1,0-0.2,0.2-0.4,0.2c-0.2,0.1-0.4,0-0.5,0s-0.1-0.1-0.2-0.1
			c-0.2-0.1-0.4-0.2-0.5-0.1c-0.1,0-0.1,0.2-0.2,0.2c-0.2,0.1-0.4-0.1-0.5-0.2c-0.2-0.1-0.2-0.2-0.3-0.2c-0.1,0-0.2,0-0.4,0.3"/>
	</g>
	<g class="st19">
		<polygon class="st17" points="-8.1,122.1 -3.8,117.1 -9.1,117 -13.3,122.1 		"/>
		<path class="st17" d="M-5.9,118.3c-0.1-0.2-0.2-0.3-0.3-0.3c-0.1,0-0.2,0.2-0.4,0.2c-0.2,0.1-0.4,0-0.5,0s-0.1-0.1-0.2-0.1
			c-0.2-0.1-0.4-0.2-0.5-0.1c-0.1,0-0.1,0.2-0.2,0.2c-0.2,0.1-0.4-0.1-0.5-0.2c-0.2-0.1-0.2-0.2-0.3-0.2c-0.1,0-0.2,0-0.4,0.3"/>
		<path class="st17" d="M-6.5,119.2c-0.1-0.2-0.2-0.3-0.3-0.3c-0.1,0-0.2,0.2-0.4,0.2c-0.2,0.1-0.4,0-0.5,0s-0.1-0.1-0.2-0.1
			c-0.2-0.1-0.4-0.2-0.5-0.1c-0.1,0-0.1,0.2-0.2,0.2c-0.2,0.1-0.4-0.1-0.5-0.2c-0.2-0.1-0.2-0.2-0.3-0.2c-0.1,0-0.2,0-0.4,0.3"/>
		<path class="st17" d="M-7.6,120.3c-0.1-0.2-0.2-0.3-0.3-0.3c-0.1,0-0.2,0.2-0.4,0.2c-0.2,0.1-0.4,0-0.5,0s-0.1-0.1-0.2-0.1
			c-0.2-0.1-0.4-0.2-0.5-0.1c-0.1,0-0.1,0.2-0.2,0.2c-0.2,0.1-0.4-0.1-0.5-0.2c-0.2-0.1-0.2-0.2-0.3-0.2c-0.1,0-0.2,0-0.4,0.3"/>
		<path class="st17" d="M-8.4,121.3c-0.1-0.2-0.2-0.3-0.3-0.3c-0.1,0-0.2,0.2-0.4,0.2c-0.2,0.1-0.4,0-0.5,0s-0.1-0.1-0.2-0.1
			c-0.2-0.1-0.4-0.2-0.5-0.1c-0.1,0-0.1,0.2-0.2,0.2c-0.2,0.1-0.4-0.1-0.5-0.2c-0.2-0.1-0.2-0.2-0.3-0.2c-0.1,0-0.2,0-0.4,0.3"/>
	</g>
	<g>
		<polygon class="st17" points="-9.4,119.9 -5,114.9 -10.4,114.8 -14.6,119.8 		"/>
		<path class="st17" d="M-7.1,116.1c-0.1-0.2-0.2-0.3-0.3-0.3c-0.1,0-0.2,0.2-0.4,0.2c-0.2,0.1-0.4,0-0.5,0s-0.1-0.1-0.2-0.1
			c-0.2-0.1-0.4-0.2-0.5-0.1c-0.1,0-0.1,0.2-0.2,0.2c-0.2,0.1-0.4-0.1-0.5-0.2c-0.2-0.1-0.2-0.2-0.3-0.2c-0.1,0-0.2,0-0.4,0.3"/>
		<path class="st17" d="M-7.8,116.9c-0.1-0.2-0.2-0.3-0.3-0.3c-0.1,0-0.2,0.2-0.4,0.2c-0.2,0.1-0.4,0-0.5,0s-0.1-0.1-0.2-0.1
			c-0.2-0.1-0.4-0.2-0.5-0.1c-0.1,0-0.1,0.2-0.2,0.2c-0.2,0.1-0.4-0.1-0.5-0.2c-0.2-0.1-0.2-0.2-0.3-0.2c-0.1,0-0.2,0-0.4,0.3"/>
		<path class="st17" d="M-8.8,118c-0.1-0.2-0.2-0.3-0.3-0.3c-0.1,0-0.2,0.2-0.4,0.2c-0.2,0.1-0.4,0-0.5,0s-0.1-0.1-0.2-0.1
			c-0.2-0.1-0.4-0.2-0.5-0.1c-0.1,0-0.1,0.2-0.2,0.2c-0.2,0.1-0.4-0.1-0.5-0.2c-0.2-0.1-0.2-0.2-0.3-0.2c-0.1,0-0.2,0-0.4,0.3"/>
		<path class="st17" d="M-9.6,119c-0.1-0.2-0.2-0.3-0.3-0.3c-0.1,0-0.2,0.2-0.4,0.2c-0.2,0.1-0.4,0-0.5,0s-0.1-0.1-0.2-0.1
			c-0.2-0.1-0.4-0.2-0.5-0.1c-0.1,0-0.1,0.2-0.2,0.2c-0.2,0.1-0.4-0.1-0.5-0.2c-0.2-0.1-0.2-0.2-0.3-0.2c-0.1,0-0.2,0-0.4,0.3"/>
	</g>
	<g>
		<polygon class="st17" points="-39.5,122.4 -35.2,117.4 -40.5,117.3 -44.7,122.3 		"/>
		<path class="st17" d="M-37.2,118.5c-0.1-0.2-0.2-0.3-0.3-0.3c-0.1,0-0.2,0.2-0.4,0.2c-0.2,0.1-0.4,0-0.5,0s-0.1-0.1-0.2-0.1
			c-0.2-0.1-0.4-0.2-0.5-0.1c-0.1,0-0.1,0.2-0.2,0.2c-0.2,0.1-0.4-0.1-0.5-0.2c-0.2-0.1-0.2-0.2-0.3-0.2c-0.1,0-0.2,0-0.4,0.3"/>
		<path class="st17" d="M-37.9,119.4c-0.1-0.2-0.2-0.3-0.3-0.3c-0.1,0-0.2,0.2-0.4,0.2c-0.2,0.1-0.4,0-0.5,0s-0.1-0.1-0.2-0.1
			c-0.2-0.1-0.4-0.2-0.5-0.1c-0.1,0-0.1,0.2-0.2,0.2c-0.2,0.1-0.4-0.1-0.5-0.2c-0.2-0.1-0.2-0.2-0.3-0.2c-0.1,0-0.2,0-0.4,0.3"/>
		<path class="st17" d="M-38.9,120.5c-0.1-0.2-0.2-0.3-0.3-0.3c-0.1,0-0.2,0.2-0.4,0.2c-0.2,0.1-0.4,0-0.5,0s-0.1-0.1-0.2-0.1
			c-0.2-0.1-0.4-0.2-0.5-0.1c-0.1,0-0.1,0.2-0.2,0.2c-0.2,0.1-0.4-0.1-0.5-0.2c-0.2-0.1-0.2-0.2-0.3-0.2c-0.1,0-0.2,0-0.4,0.3"/>
		<path class="st17" d="M-39.7,121.5c-0.1-0.2-0.2-0.3-0.3-0.3c-0.1,0-0.2,0.2-0.4,0.2c-0.2,0.1-0.4,0-0.5,0s-0.1-0.1-0.2-0.1
			c-0.2-0.1-0.4-0.2-0.5-0.1c-0.1,0-0.1,0.2-0.2,0.2c-0.2,0.1-0.4-0.1-0.5-0.2c-0.2-0.1-0.2-0.2-0.3-0.2c-0.1,0-0.2,0-0.4,0.3"/>
	</g>
	<g>
		<g>
			<path class="st5" d="M-29.9,114.5c-1.2-1.5-4.2-1.2-7.1,0.6"/>
			<g>
				<path d="M-38.3,115.9c0.4-0.6,0.9-1.5,1.1-2.2l0.3,1.2l1,0.7C-36.5,115.6-37.5,115.8-38.3,115.9z"/>
			</g>
		</g>
	</g>
	<g>
		<g>
			<path class="st5" d="M-21.4,114.1c1.3-1.6,4.4-1.3,7.5,0.6"/>
			<g>
				<path d="M-12.7,115.5c-0.7-0.2-1.7-0.3-2.4-0.2l1-0.7l0.3-1.2C-13.6,114-13.2,114.9-12.7,115.5z"/>
			</g>
		</g>
	</g>
</g>
<g>
	<text transform="matrix(1 0 0 1 -104.7152 88.6744)" class="st2"><tspan x="0" y="0" class="st3 st4">1.</tspan><tspan x="6.7" y="0" class="st0 st4"> Clarify </tspan><tspan x="8" y="9.6" class="st0 st4"> your</tspan><tspan x="-0.5" y="19.2" class="st0 st4">audience </tspan></text>
	<g>
		<g>
			<circle class="st21" cx="-87.1" cy="119.1" r="4"/>
			
				<ellipse transform="matrix(-0.7092 -0.705 0.705 -0.7092 -230.1741 140.2336)" class="st21" cx="-86.2" cy="117.6" rx="1.1" ry="1"/>
			
				<ellipse transform="matrix(-0.7092 -0.705 0.705 -0.7092 -235.3177 138.6145)" class="st21" cx="-89.1" cy="117.8" rx="1.1" ry="1"/>
			<ellipse class="st22" cx="-86.5" cy="117.4" rx="0.4" ry="0.4"/>
			<ellipse class="st22" cx="-89.7" cy="117.6" rx="0.4" ry="0.4"/>
			<g>
				<g>
					<path class="st23" d="M-92,121.3c0.9-2.1-1.8-2.6-1.8-0.8c0,0.2,0.2,0.4,0.4,0.5c2.9,1,2.7-3.3,0.4-2.1
						c-0.5,0.2-0.2,0.9,0.3,0.9c2,0.2,2.6-2.1,0.8-2.9c-0.3-0.1-0.6,0-0.7,0.3c-0.6,1.6,1.7,1.9,2.2,0.3c0.5-1.6-1.6-2.9-2.3-1.2
						c-0.2,0.4,0.1,0.8,0.6,0.7c1.9-0.4,3.1-1.6,3.7-3.4c0.1-0.4-0.3-0.7-0.6-0.6c-1,0.2-1.8,0.8-1.8,1.9c0,0.2,0.1,0.4,0.2,0.4
						c1.3,0.7,2.5-0.2,3.1-1.4c0.1-0.3,0.1-0.5-0.2-0.7c-0.1-0.1-0.2-0.1-0.3-0.2c-0.2-0.1-0.3-0.1-0.5,0c-1.5,0.7,0.1,2.4,1.2,2.5
						c1.3,0.1,2.8-1.1,1.7-2.3c-0.1-0.2-0.4-0.2-0.6-0.1c-0.6,0.5-0.8,1.1-0.1,1.6c1.2,0.9,2.9-0.4,3.6-1.3c0.3-0.4-0.1-1.1-0.6-0.8
						c-2.6,1.7,0.2,4.7,1.7,2.4c0.2-0.3,0-0.7-0.3-0.7c-3.1-0.8-1.9,5,0.2,2.7c-0.3-0.2-0.5-0.4-0.8-0.6c-0.5,1-1.3,2.9-0.1,3.7
						c0.1,0.1,0.4,0.1,0.5,0c0.6-0.4,0.7-0.9,0.8-1.6c0.1-0.4-0.3-0.9-0.7-0.6c-2,1.5,2.3,3.3,1.7-0.3c-0.1-0.5-0.7-0.4-0.9-0.1
						c-0.6,0.9-0.8,1.7-0.7,2.7c0,0.6,1,0.6,1,0c-0.1-0.8,0.1-1.6,0.6-2.2c-0.3,0-0.6-0.1-0.9-0.1c-0.1,0.3-0.2,0.6-0.2,0.9
						c-0.2-0.2-0.5-0.4-0.7-0.6c0.2,1,0.4,0.5,0.6-1.4c0.2-0.5-0.4-1-0.8-0.6c0.1-0.3,0.1-0.7,0.2-1c-0.1-0.2-0.2-0.5-0.3-0.7
						c-0.1-0.3-0.2-0.7-0.4-1c-0.2-0.3-0.4-0.5-0.6-0.8c-1.3,1.4-2.9,1.8-4.9,1.3c-0.1-0.2-0.1-0.5-0.2-0.7
						c-0.2,0.2-0.3,0.4-0.5,0.6c-0.2-0.2-0.4-0.4-0.6-0.6c-0.5,1.4-1.5,2.4-3,2.7c0.2,0.2,0.4,0.5,0.6,0.7c0.1,0.2,0.1,0.4,0.2,0.7
						c-0.2,0.1-0.5,0.2-0.7,0.3c-0.1,0.3-0.2,0.7-0.3,1c0.1,0.3,0.2,0.6,0.3,0.9c-0.1,0.4-0.3,0.7-0.4,1.1
						C-93.1,121.4-92.2,121.9-92,121.3L-92,121.3z"/>
				</g>
			</g>
			<g>
				<g>
					<path class="st23" d="M-93.7,118c0.1,0,0.1,0.1,0.2,0.1c0.2,0.1,0.4,0.1,0.5,0c2.3-1.7-1.2-3.6-1.4-1.7
						c-0.1,1.8,4.1,1.3,2.7-1.6c-0.2,0.2-0.4,0.5-0.6,0.7c0.9,0.4,2.9-0.1,3-1.3c0.1-1.2-1.1-1.2-1.8-0.9c-0.5,0.2-0.4,0.9,0.1,1
						c1.3,0.1,2.2-0.4,2.8-1.5c0.2-0.3,0-0.6-0.3-0.7c-1-0.3-1.7-0.2-2.5,0.4c-0.2,0.2-0.4,0.6-0.1,0.8c1.6,1.3,3.2,0.5,4.6-0.7
						c0.3-0.2,0.1-0.8-0.2-0.8c-0.5-0.1-0.6-0.1-1,0.3c-0.2,0.2-0.2,0.5,0,0.7c0.8,0.9,1.5,1,2.6,0.5c-0.3-0.1-0.5-0.3-0.8-0.4
						c-0.3,2.4,2.6,2.9,3.3,0.7c0.2-0.6-0.6-0.9-0.9-0.4c-0.6,1-0.2,2.6,1,3.1c0.9,0.3,1.8-0.3,1.4-1.3c-0.2-0.5-0.8-0.5-1,0
						c-0.4,0.9-0.3,1.7-0.4,2.7c-0.1,0.8-0.6,1.6-0.4,2.4c0.2,0.8,0.8,1.2,1.5,0.6c0.5-0.5-0.2-1.2-0.7-0.7
						c-0.6,0.6-0.6,0.6-0.6,1.4c0,0.4,0.4,0.6,0.8,0.4c0.5-0.2,0.5-0.3,0.7-0.8c0.1-0.5-0.5-0.8-0.8-0.5c-0.5,0.5-0.5,0.5-0.8,1.1
						c-0.2,0.6,0.7,0.9,1,0.3c0.2-0.2,0.3-0.5,0.5-0.7c-0.3-0.2-0.6-0.3-0.8-0.5c-0.1,0.1-0.1,0.2-0.2,0.2c0.3,0.1,0.5,0.3,0.8,0.4
						c0.1-0.2,0.2-0.5,0.3-0.7c-0.2-0.2-0.5-0.5-0.7-0.7c1.4-1.4,0.4-3.2,1-4.7c-0.3,0-0.6,0-1,0c-0.2-0.5-0.4-1-0.6-1.6
						c-0.3-0.1-0.6-0.3-0.9-0.4c-0.4-0.1-0.9-0.3-1.3-0.4c0-0.4-0.5-0.6-0.8-0.4c-0.5,0.1-0.9,0.2-1.4,0.3c-0.1-0.3-0.1-0.6-0.2-0.8
						c-0.9,1-1.9,1.2-3.2,0.7c0,0.3-0.1,0.5-0.1,0.8c0.6-0.1,1.1-0.2,1.7-0.3c-0.1-0.2-0.2-0.5-0.3-0.7c-0.7,0.3-1.3,0.6-2,1
						c0,0.3,0.1,0.7,0.1,1c0.2,0.5-0.2,0.6-1.2,0.2c-0.4-0.2-0.7,0.4-0.6,0.7c-0.2,0.6-0.5,1.2-0.7,1.8
						C-93.8,116.9-94.3,117.7-93.7,118L-93.7,118z"/>
				</g>
			</g>
			<g>
				<g>
					<path class="st23" d="M-92.7,117.1c-0.4,0.3-0.8,0.7-0.7,1.2c0,0.3,0.2,0.5,0.4,0.7c0.1,0.1,0.5,0.2,0.6,0.3
						c0.2,0.3,0,0.9,0,1.2c0,0.3,0.1,0.5,0.3,0.7c0.1,0.1,0.4,0.5,0.3,0.2c0.1,0.3-0.4,1.2-0.6,1.5c-0.2,0.6,0.7,0.9,1,0.3
						c0.2-0.5,0.6-1.3,0.6-1.8c0-0.6-0.5-0.9-0.6-1.6c0-0.4,0.2-0.8-0.1-1.2c-0.1-0.1-1.1-0.5-0.8-0.7
						C-91.7,117.6-92.2,116.7-92.7,117.1L-92.7,117.1z"/>
				</g>
			</g>
			<g>
				<path class="st23" d="M-89.5,120.1c0,0,0.3,0.2,0.7,0.3s1,0.2,1.6,0.2c0.1,0,0.3,0,0.4-0.1c0.1,0,0.3-0.1,0.4-0.1
					c0.3-0.1,0.5-0.2,0.7-0.4c0.4-0.3,0.6-0.5,0.6-0.5s-0.1,0.3-0.4,0.7c-0.2,0.2-0.4,0.4-0.7,0.5c-0.1,0.1-0.3,0.1-0.5,0.2
					c-0.2,0.1-0.3,0.1-0.5,0.1c-0.3,0-0.7,0-1-0.1c-0.3-0.1-0.6-0.2-0.8-0.3C-89.3,120.4-89.5,120.1-89.5,120.1z"/>
			</g>
			<g>
				<g>
					<path class="st23" d="M-92.9,118.8c0.1,0,0.1,0.1,0.2,0.1c0.1,0.1,0.4,0.1,0.5,0c2.1-1.6-1.2-3.3-1.3-1.5
						c-0.1,1.8,3.6,1.1,2.4-1.5c-0.2,0.2-0.5,0.5-0.7,0.7c0.9,0.4,2.6,0,2.8-1.2c0.1-1.1-1.1-1.1-1.8-0.7c-0.5,0.3-0.2,0.9,0.3,0.9
						c1.1,0.1,1.9-0.4,2.4-1.3c0.2-0.3,0-0.6-0.3-0.7c-0.9-0.3-1.5-0.1-2.3,0.5c-0.2,0.2-0.2,0.5,0,0.7c1.4,1.2,2.8,0.5,4-0.6
						c0.3-0.2,0.1-0.7-0.2-0.8c-0.1,0-0.2,0-0.2-0.1c-0.2,0-0.4,0-0.5,0.1c-0.1,0.1-0.1,0.1-0.2,0.2c-0.2,0.2-0.2,0.5,0,0.7
						c0.7,0.8,1.4,0.9,2.3,0.5c-0.3-0.1-0.5-0.3-0.8-0.4c-0.2,2.1,2.3,2.7,2.9,0.6c0.2-0.5-0.6-0.9-0.9-0.4
						c-0.5,0.9-0.2,2.4,0.9,2.8c0.8,0.3,1.6-0.3,1.3-1.2c-0.2-0.5-0.8-0.5-1,0c-0.3,0.8-0.2,1.5-0.4,2.3c-0.1,0.7-0.5,1.4-0.3,2.2
						c0.2,0.7,0.8,1.2,1.4,0.6c0.4-0.5-0.3-1.2-0.7-0.7c-0.5,0.5-0.5,0.6-0.6,1.3c0,0.4,0.4,0.6,0.8,0.4c0.4-0.2,0.5-0.3,0.6-0.8
						c0.1-0.5-0.5-0.8-0.8-0.5c-0.5,0.4-0.5,0.4-0.7,1c-0.2,0.6,0.7,0.9,1,0.3c0.1-0.2,0.3-0.4,0.4-0.6c-0.3-0.2-0.6-0.3-0.8-0.5
						c0,0.1-0.1,0.1-0.1,0.2c0.3,0.1,0.5,0.3,0.8,0.4c0.1-0.2,0.2-0.4,0.3-0.6c-0.2-0.2-0.5-0.5-0.7-0.7c1.4-1.5,0.3-2.5,1-4.1
						c-0.3,0-0.6,0-1,0c-0.1-0.5-0.2-0.9-0.4-1.4c-0.3-0.1-0.6-0.3-0.9-0.4c-0.3-0.1-0.6-0.2-1-0.4c0-0.4-0.4-0.6-0.8-0.4
						c-0.3-0.1-0.7-0.2-1-0.3c0,0.2,0,0.5,0,0.7h-0.1c-0.1-0.3-0.1-0.6-0.2-0.8c-0.7,0.8-1.5,1-2.6,0.6c0,0.2,0,0.5,0,0.7
						c0.4-0.1,0.9-0.1,1.3-0.2c-0.1-0.2-0.2-0.5-0.3-0.7c-0.5,0.3-1.1,0.5-1.6,0.8c0.1,0.3,0.2,0.6,0.3,0.9c-0.3,0.1-0.7,0.1-1,0.2
						c-0.5-0.2-0.9,0.2-0.7,0.7c-0.2,0.5-0.3,1-0.5,1.5C-92.9,117.7-93.4,118.6-92.9,118.8L-92.9,118.8z"/>
				</g>
			</g>
			<g>
				<g>
					<path class="st23" d="M-93.4,116.3c-0.4,0.3-0.8,0.7-0.7,1.2c0,0.3,0.2,0.5,0.4,0.7c0.1,0.1,0.5,0.2,0.6,0.3
						c0.2,0.3,0,0.9,0,1.2s0.1,0.5,0.3,0.7c0.1,0.1,0.4,0.5,0.3,0.2c0.1,0.3-0.4,1.2-0.6,1.5c-0.2,0.6,0.7,0.9,1,0.3
						c0.2-0.5,0.6-1.3,0.6-1.8c0-0.6-0.5-0.9-0.6-1.6c0-0.4,0.2-0.8-0.1-1.2c-0.1-0.1-1.1-0.5-0.8-0.7
						C-92.3,116.8-92.8,115.9-93.4,116.3L-93.4,116.3z"/>
				</g>
			</g>
		</g>
		<g>
			<ellipse class="st24" cx="-73.8" cy="115.7" rx="0.4" ry="0.4"/>
			<ellipse class="st24" cx="-76.5" cy="116" rx="0.4" ry="0.4"/>
			<circle class="st25" cx="-74.3" cy="117.7" r="4"/>
			
				<ellipse transform="matrix(-0.7092 -0.705 0.705 -0.7092 -207.2602 146.882)" class="st25" cx="-73.3" cy="116.2" rx="1.1" ry="1"/>
			
				<ellipse transform="matrix(-0.7092 -0.705 0.705 -0.7092 -212.4038 145.263)" class="st25" cx="-76.2" cy="116.4" rx="1.1" ry="1"/>
			<g>
				<path class="st26" d="M-76.4,119.1c0,0,0.3,0.2,0.7,0.3c0.4,0.2,1.1,0.3,1.6,0.1c0.1,0,0.3-0.1,0.4-0.1c0.1-0.1,0.3-0.1,0.4-0.2
					c0.2-0.2,0.5-0.3,0.6-0.5c0.3-0.3,0.5-0.6,0.5-0.6s0,0.3-0.3,0.8c-0.1,0.2-0.3,0.5-0.6,0.7c-0.1,0.1-0.3,0.2-0.4,0.3
					c-0.2,0.1-0.3,0.1-0.5,0.2c-0.4,0.1-0.7,0.1-1.1,0c-0.3-0.1-0.6-0.2-0.8-0.4C-76.3,119.4-76.4,119.1-76.4,119.1z"/>
			</g>
		</g>
		<g>
			<ellipse class="st27" cx="-99.4" cy="117" rx="0.4" ry="0.4"/>
			<circle class="st28" cx="-100" cy="118.3" r="4"/>
			
				<ellipse transform="matrix(-0.7092 -0.705 0.705 -0.7092 -251.7898 130.6063)" class="st28" cx="-99" cy="117.2" rx="1.1" ry="1"/>
			
				<ellipse transform="matrix(-0.7092 -0.705 0.705 -0.7092 -256.2493 129.4111)" class="st28" cx="-101.4" cy="117.6" rx="1.1" ry="1"/>
			<g>
				<path class="st29" d="M-102.4,119.2c0,0,0.3,0.3,0.9,0.6c0.3,0.2,0.6,0.3,1,0.4c0.2,0,0.4,0,0.6,0.1c0.2,0,0.4,0,0.6-0.1
					c0.2-0.1,0.4-0.1,0.6-0.2c0.2-0.1,0.3-0.2,0.5-0.3c0.3-0.2,0.6-0.4,0.8-0.7c0.4-0.4,0.7-0.8,0.7-0.8s-0.1,0.4-0.4,1
					c-0.2,0.3-0.4,0.6-0.7,0.8c-0.3,0.3-0.8,0.5-1.2,0.6c-0.2,0.1-0.5,0.1-0.7,0.1c-0.2,0-0.4-0.1-0.7-0.1c-0.4-0.1-0.7-0.3-1-0.5
					C-102.2,119.6-102.4,119.2-102.4,119.2z"/>
			</g>
			<ellipse class="st27" cx="-101.9" cy="117.3" rx="0.4" ry="0.4"/>
			<g>
				<path d="M-103.1,113.1c1.2,0,2.3,0.4,3.4,1.2"/>
				<path class="st29" d="M-103.1,113.1c0,0,0.2-0.2,0.6-0.2c0.4-0.1,0.9-0.1,1.4,0.1c0.5,0.2,0.9,0.5,1.1,0.8
					c0.2,0.3,0.3,0.6,0.3,0.6s-0.3,0-0.6-0.1c-0.3-0.1-0.8-0.2-1.2-0.3c-0.4-0.2-0.8-0.3-1.1-0.5
					C-102.8,113.3-103.1,113.1-103.1,113.1z"/>
			</g>
			<g>
				<path d="M-105.3,115c1.6-0.6,3.5-0.8,5.3-0.6"/>
				<path class="st29" d="M-105.3,115c0,0,0.3-0.3,0.7-0.5c0.5-0.3,1.1-0.5,1.9-0.6c0.7-0.1,1.4,0,1.9,0.2c0.5,0.1,0.8,0.3,0.8,0.3
					s-0.4,0.1-0.9,0.2c-0.5,0.1-1.2,0.2-1.8,0.3s-1.3,0.1-1.8,0.1C-104.9,115-105.3,115-105.3,115z"/>
			</g>
			<g>
				<path d="M-104.9,116.1c1.8-0.4,3.5-1,4.9-1.8"/>
				<path class="st29" d="M-104.9,116.1c0,0,0.3-0.2,0.7-0.5c0.4-0.2,1-0.5,1.6-0.7c0.6-0.2,1.2-0.4,1.7-0.5s0.9-0.1,0.9-0.1
					s-0.2,0.3-0.6,0.6c-0.4,0.3-1,0.7-1.6,0.9s-1.3,0.3-1.8,0.3C-104.5,116.2-104.9,116.1-104.9,116.1z"/>
			</g>
		</g>
	</g>
</g>
<rect x="-12.4" y="181.6" class="st30" width="37.5" height="26.2"/>
<text transform="matrix(1 0 0 1 -9.9095 187.3088)" class="st2"><tspan x="0" y="0" class="st3 st4">9.</tspan><tspan x="6.7" y="0" class="st0 st4"> Link to </tspan></text>
<text transform="matrix(1 0 0 1 -2.8095 196.9088)" class="st0 st4">other </text>
<text transform="matrix(1 0 0 1 -11.2095 206.5088)" class="st0 st4">resources</text>
<rect x="-100.2" y="181.6" class="st30" width="41.6" height="26"/>
<text transform="matrix(1 0 0 1 -98.7503 187.3088)" class="st2"><tspan x="0" y="0" class="st3 st4">8.</tspan><tspan x="6.7" y="0" class="st0 st4"> Reduce, </tspan></text>
<text transform="matrix(1 0 0 1 -91.8503 196.9088)" class="st0 st4">re-use, </text>
<text transform="matrix(1 0 0 1 -92.0503 206.5088)" class="st0 st4">recycle</text>
<g>
	<g>
		<defs>
			<rect id="SVGID_1_" x="-57.5" y="183.2" width="25.2" height="24"/>
		</defs>
		<clipPath id="SVGID_2_">
			<use xlink:href="#SVGID_1_"  style="overflow:visible;"/>
		</clipPath>
		<g id="zZeI5A.tif_1_" class="st31">
			
				<image style="overflow:visible;enable-background:new    ;" width="415" height="415" id="Layer_0_1_" xlink:href="39F8D8DD627B9BEB.png"  transform="matrix(6.065833e-02 0 0 5.794228e-02 -57.485 183.1673)">
			</image>
		</g>
	</g>
</g>
<rect x="68.7" y="181.6" transform="matrix(-1 -1.929926e-03 1.929926e-03 -1 193.1235 390.1863)" class="st30" width="56.1" height="26.8"/>
<text transform="matrix(1 0 0 1 73.4163 187.3088)" class="st0 st4">10. You can’t </text>
<text transform="matrix(1 0 0 1 85.0163 196.9088)" class="st0 st4">please </text>
<text transform="matrix(1 0 0 1 80.3163 206.5088)" class="st0 st4">everyone </text>
<g>
	<g>
		<path class="st32" d="M133.5,206.3c0,0,0.1-0.3,0.4-0.6s0.7-0.8,1.4-0.9c0.3,0,0.6,0,0.9,0.1s0.5,0.3,0.6,0.4
			c0.3,0.3,0.4,0.6,0.4,0.6s-0.2-0.2-0.5-0.5s-0.8-0.5-1.4-0.4c-0.5,0.1-1,0.4-1.3,0.7C133.7,206.1,133.5,206.3,133.5,206.3z"/>
	</g>
	<polygon class="st17" points="154.3,204.5 159.4,198.5 153.1,198.4 148.2,204.4 	"/>
	<path class="st17" d="M157,199.9c-0.1-0.3-0.3-0.3-0.3-0.3c-0.2,0-0.2,0.2-0.5,0.3s-0.5,0-0.6-0.1c-0.1,0-0.1-0.1-0.2-0.2
		c-0.2-0.1-0.4-0.2-0.6-0.2c-0.1,0.1-0.1,0.2-0.3,0.2c-0.2,0.1-0.5-0.2-0.6-0.3c-0.2-0.2-0.2-0.3-0.3-0.3c-0.1,0-0.2,0.1-0.4,0.4"/>
	<path class="st33" d="M156.2,201c-0.1-0.3-0.3-0.3-0.3-0.3c-0.2,0-0.2,0.2-0.5,0.3s-0.5,0-0.6-0.1c-0.1,0-0.1-0.1-0.2-0.2
		c-0.2-0.1-0.4-0.2-0.6-0.2c-0.1,0.1-0.1,0.2-0.3,0.2c-0.2,0.1-0.5-0.2-0.6-0.3c-0.2-0.2-0.2-0.3-0.3-0.3c-0.1,0-0.2,0.1-0.4,0.4"/>
	<path class="st17" d="M155,202.2c-0.1-0.3-0.3-0.3-0.3-0.3c-0.2,0-0.2,0.2-0.5,0.3s-0.5,0-0.6-0.1c-0.1,0-0.1-0.1-0.2-0.2
		c-0.2-0.1-0.4-0.2-0.6-0.2c-0.1,0.1-0.1,0.2-0.3,0.2c-0.2,0.1-0.5-0.2-0.6-0.3c-0.2-0.2-0.2-0.3-0.3-0.3c-0.1,0-0.2,0.1-0.4,0.4"/>
	<path class="st33" d="M154,203.5c-0.1-0.3-0.3-0.3-0.3-0.3c-0.2,0-0.2,0.2-0.5,0.3s-0.5,0-0.6-0.1c-0.1,0-0.1-0.1-0.2-0.2
		c-0.2-0.1-0.4-0.2-0.6-0.2c-0.1,0.1-0.1,0.2-0.3,0.2c-0.2,0.1-0.5-0.2-0.6-0.3c-0.2-0.2-0.2-0.3-0.3-0.3c-0.1,0-0.2,0.1-0.4,0.4"/>
	<polygon class="st34" points="159.8,207.5 165,201.6 158.7,201.5 153.7,207.4 	"/>
	<path class="st35" d="M162.5,203c-0.1-0.3-0.3-0.3-0.3-0.3c-0.2,0-0.2,0.2-0.5,0.3s-0.5,0-0.6-0.1c-0.1,0-0.1-0.1-0.2-0.2
		c-0.2-0.1-0.4-0.2-0.6-0.2c-0.1,0.1-0.1,0.2-0.3,0.2c-0.2,0.1-0.5-0.2-0.6-0.3c-0.2-0.2-0.2-0.3-0.3-0.3c-0.1,0-0.2,0.1-0.4,0.4"/>
	<path class="st34" d="M161.7,204c-0.1-0.3-0.3-0.3-0.3-0.3c-0.2,0-0.2,0.2-0.5,0.3s-0.5,0-0.6-0.1c-0.1,0-0.1-0.1-0.2-0.2
		c-0.2-0.1-0.4-0.2-0.6-0.2c-0.1,0.1-0.1,0.2-0.3,0.2c-0.2,0.1-0.5-0.2-0.6-0.3c-0.2-0.2-0.2-0.3-0.3-0.3c-0.1,0-0.2,0.1-0.4,0.4"/>
	<path class="st35" d="M160.5,205.3c-0.1-0.3-0.3-0.3-0.3-0.3c-0.2,0-0.2,0.2-0.5,0.3s-0.5,0-0.6-0.1c-0.1,0-0.1-0.1-0.2-0.2
		c-0.2-0.1-0.4-0.2-0.6-0.2c-0.1,0.1-0.1,0.2-0.3,0.2c-0.2,0.1-0.5-0.2-0.6-0.3c-0.2-0.2-0.2-0.3-0.3-0.3c-0.1,0-0.2,0.1-0.4,0.4"/>
	<path class="st34" d="M159.6,206.5c-0.1-0.3-0.3-0.3-0.3-0.3c-0.2,0-0.2,0.2-0.5,0.3s-0.5,0-0.6-0.1c-0.1,0-0.1-0.1-0.2-0.2
		c-0.2-0.1-0.4-0.2-0.6-0.2c-0.1,0.1-0.1,0.2-0.3,0.2c-0.2,0.1-0.5-0.2-0.6-0.3c-0.2-0.2-0.2-0.3-0.3-0.3c-0.1,0-0.2,0.1-0.4,0.4"/>
	<g>
		<g>
			<path class="st5" d="M140.1,201.1c1.3-2.3,4.6-2.9,8-1.6"/>
			<g>
				<path d="M149.4,200.1c-0.8-0.1-1.7,0-2.4,0.2l0.9-0.9l0.1-1.3C148.2,198.8,148.9,199.6,149.4,200.1z"/>
			</g>
		</g>
	</g>
	<circle class="st36" cx="135.4" cy="203.1" r="4"/>
	<g>
		<g>
			<path class="st32" d="M134.7,201.4c-0.5-0.3-1.1-0.7-1.6-1"/>
			<path class="st32" d="M134.7,201.4c0,0-0.1,0-0.3-0.1c-0.2-0.1-0.4-0.2-0.6-0.3s-0.4-0.3-0.5-0.4c-0.1-0.1-0.2-0.2-0.2-0.2
				s0.1,0,0.3,0.1c0.2,0.1,0.4,0.2,0.6,0.3s0.4,0.3,0.5,0.4C134.7,201.3,134.7,201.4,134.7,201.4z"/>
		</g>
		
			<ellipse transform="matrix(-0.7092 -0.705 0.705 -0.7092 85.6777 440.5405)" class="st36" cx="133.7" cy="202.6" rx="1.2" ry="1"/>
		<ellipse class="st37" cx="133.8" cy="202.8" rx="0.4" ry="0.4"/>
	</g>
	<g>
		<g>
			<path class="st32" d="M135.6,201.3c0.5-0.3,1.1-0.7,1.6-1"/>
			<path class="st32" d="M135.6,201.3c0,0,0.1-0.1,0.2-0.2c0.1-0.1,0.3-0.3,0.5-0.4c0.2-0.1,0.4-0.2,0.6-0.3s0.3-0.1,0.3-0.1
				s-0.1,0.1-0.2,0.2c-0.1,0.1-0.3,0.3-0.5,0.4c-0.2,0.1-0.4,0.2-0.6,0.3C135.7,201.3,135.6,201.3,135.6,201.3z"/>
		</g>
		
			<ellipse transform="matrix(-0.7092 0.705 -0.705 -0.7092 376.2408 249.6658)" class="st36" cx="136.6" cy="202.4" rx="1.2" ry="1"/>
		<ellipse class="st37" cx="136.5" cy="202.7" rx="0.4" ry="0.4"/>
	</g>
	<circle class="st38" cx="130.9" cy="187.1" r="4.1"/>
	<ellipse transform="matrix(-0.7092 -0.705 0.705 -0.7092 94.6214 410.6327)" class="st38" cx="132" cy="185.8" rx="1.1" ry="1"/>
	<ellipse transform="matrix(-0.7092 -0.705 0.705 -0.7092 90.3482 408.8381)" class="st39" cx="129.5" cy="185.8" rx="1.1" ry="1"/>
	<ellipse class="st40" cx="132.6" cy="185.8" rx="0.4" ry="0.4"/>
	<ellipse class="st40" cx="129.9" cy="185.8" rx="0.4" ry="0.4"/>
	<g>
		<path class="st41" d="M129.1,187.9c0,0,0.2,0.2,0.5,0.5s0.8,0.6,1.3,0.6c0.5,0.1,1-0.2,1.3-0.5c0.3-0.3,0.5-0.5,0.5-0.5
			s-0.1,0.3-0.4,0.6c-0.1,0.2-0.3,0.4-0.6,0.5s-0.6,0.2-0.9,0.2c-0.6-0.1-1.1-0.5-1.4-0.8C129.2,188.2,129.1,187.9,129.1,187.9z"/>
	</g>
	<g>
		<circle class="st38" cx="139.3" cy="189.5" r="4.1"/>
		
			<ellipse transform="matrix(-0.7092 -0.705 0.705 -0.7092 107.1636 420.4576)" class="st38" cx="140.3" cy="188.1" rx="1.1" ry="1"/>
		
			<ellipse transform="matrix(-0.7092 -0.705 0.705 -0.7092 102.8904 418.663)" class="st39" cx="137.8" cy="188.1" rx="1.1" ry="1"/>
		<ellipse class="st40" cx="141" cy="188.1" rx="0.4" ry="0.4"/>
		<ellipse class="st40" cx="138.3" cy="188.1" rx="0.4" ry="0.4"/>
		<g>
			<path class="st41" d="M137.4,190.2c0,0,0.2,0.2,0.5,0.5s0.8,0.6,1.3,0.6c0.5,0.1,1-0.2,1.3-0.5s0.5-0.5,0.5-0.5s-0.1,0.3-0.4,0.6
				c-0.1,0.2-0.3,0.4-0.6,0.5c-0.3,0.1-0.6,0.2-0.9,0.2c-0.6-0.1-1.1-0.5-1.4-0.8C137.5,190.5,137.4,190.2,137.4,190.2z"/>
		</g>
	</g>
	<circle class="st38" cx="147.6" cy="187" r="4.1"/>
	
		<ellipse transform="matrix(-0.7092 -0.705 0.705 -0.7092 123.0906 422.2303)" class="st38" cx="148.6" cy="185.7" rx="1.1" ry="1"/>
	
		<ellipse transform="matrix(-0.7092 -0.705 0.705 -0.7092 118.8175 420.4356)" class="st39" cx="146.1" cy="185.7" rx="1.1" ry="1"/>
	<ellipse class="st40" cx="149.3" cy="185.7" rx="0.4" ry="0.4"/>
	<ellipse class="st40" cx="146.6" cy="185.7" rx="0.4" ry="0.4"/>
	<g>
		<path class="st41" d="M145.7,187.8c0,0,0.2,0.2,0.5,0.5c0.3,0.3,0.8,0.6,1.3,0.6c0.5,0.1,1-0.2,1.3-0.5s0.5-0.5,0.5-0.5
			s-0.1,0.3-0.4,0.6c-0.1,0.2-0.3,0.4-0.6,0.5c-0.3,0.1-0.6,0.2-0.9,0.2c-0.6-0.1-1.1-0.5-1.4-0.8
			C145.8,188.1,145.7,187.8,145.7,187.8z"/>
	</g>
	<g>
		<circle class="st38" cx="156.1" cy="189.5" r="4.1"/>
		
			<ellipse transform="matrix(-0.7092 -0.705 0.705 -0.7092 135.8783 432.3255)" class="st38" cx="157.1" cy="188.1" rx="1.1" ry="1"/>
		
			<ellipse transform="matrix(-0.7092 -0.705 0.705 -0.7092 131.6052 430.5308)" class="st39" cx="154.6" cy="188.1" rx="1.1" ry="1"/>
		<ellipse class="st40" cx="157.8" cy="188.1" rx="0.4" ry="0.4"/>
		<ellipse class="st40" cx="155.1" cy="188.1" rx="0.4" ry="0.4"/>
		<g>
			<path class="st41" d="M154.2,190.2c0,0,0.2,0.2,0.5,0.5s0.8,0.6,1.3,0.6c0.5,0.1,1-0.2,1.3-0.5s0.5-0.5,0.5-0.5s-0.1,0.3-0.4,0.6
				c-0.1,0.2-0.3,0.4-0.6,0.5c-0.3,0.1-0.6,0.2-0.9,0.2c-0.6-0.1-1.1-0.5-1.4-0.8C154.3,190.5,154.2,190.2,154.2,190.2z"/>
		</g>
	</g>
	<g>
		<path class="st32" d="M124.3,204.1c0,0,0.1-0.3,0.4-0.6c0.3-0.3,0.7-0.8,1.4-0.9c0.3,0,0.6,0,0.9,0.1c0.3,0.1,0.5,0.3,0.6,0.4
			c0.3,0.3,0.4,0.6,0.4,0.6s-0.2-0.2-0.5-0.5s-0.8-0.5-1.4-0.4c-0.5,0.1-1,0.4-1.3,0.7C124.4,203.8,124.3,204.1,124.3,204.1z"/>
	</g>
	<circle class="st36" cx="126.1" cy="200.9" r="4"/>
	<g>
		<g>
			<path class="st32" d="M125.5,199.2c-0.5-0.3-1.1-0.7-1.6-1"/>
			<path class="st32" d="M125.5,199.2c0,0-0.1,0-0.3-0.1s-0.4-0.2-0.6-0.3c-0.2-0.1-0.4-0.3-0.5-0.4c-0.1-0.1-0.2-0.2-0.2-0.2
				s0.1,0,0.3,0.1s0.4,0.2,0.6,0.3c0.2,0.1,0.4,0.3,0.5,0.4C125.4,199.1,125.5,199.2,125.5,199.2z"/>
		</g>
		
			<ellipse transform="matrix(-0.7092 -0.705 0.705 -0.7092 71.3956 430.2489)" class="st36" cx="124.4" cy="200.4" rx="1.2" ry="1"/>
		<ellipse class="st37" cx="124.6" cy="200.5" rx="0.4" ry="0.4"/>
	</g>
	<g>
		<g>
			<path class="st32" d="M126.3,199c0.5-0.3,1.1-0.7,1.6-1"/>
			<path class="st32" d="M126.3,199c0,0,0.1-0.1,0.2-0.2c0.1-0.1,0.3-0.3,0.5-0.4c0.2-0.1,0.4-0.2,0.6-0.3c0.2-0.1,0.3-0.1,0.3-0.1
				s-0.1,0.1-0.2,0.2c-0.1,0.1-0.3,0.3-0.5,0.4c-0.2,0.1-0.4,0.2-0.6,0.3S126.3,199,126.3,199z"/>
		</g>
		
			<ellipse transform="matrix(-0.7092 0.705 -0.705 -0.7092 358.7857 252.4821)" class="st36" cx="127.3" cy="200.2" rx="1.2" ry="1"/>
		<ellipse class="st37" cx="127.2" cy="200.4" rx="0.4" ry="0.4"/>
	</g>
</g>
<text transform="matrix(1 0 0 1 -24.803 143.9405)" class="st2"><tspan x="0" y="0" class="st3 st4">6. </tspan><tspan x="8.9" y="0" class="st0 st4">Publish periodically </tspan></text>
<text transform="matrix(1 0 0 1 -11.203 153.5405)" class="st0 st4">and recognize </text>
<text transform="matrix(1 0 0 1 -8.803 163.1405)" class="st0 st4">contributions</text>
<g>
	<path class="st23" d="M-58.3,146.3c1.5,2.6,4,3.3,6.6,3.9c0.9,0.2,1.9,0.2,2.9,0.3c0.1,0,0.4-0.1,0.4,0.1c0.1,0.2-0.1,0.4-0.2,0.5
		c-0.4,0.3-0.9,0.5-1.4,0.5c-0.6,0-1.1,0-1.7,0.1c-0.4,0.1-0.6,0.3-0.6,0.8c0.1,1.8,0.2,3.6,0.3,5.4c0.1,0.7-0.1,1-0.6,1
		c-0.4,0-0.7-0.2-0.8-0.6c-0.3-0.9-0.5-1.9-0.8-2.8c-0.1-0.3-0.2-0.6-0.3-0.9c-0.1-0.2-0.1-0.4-0.3-0.4s-0.3,0.2-0.4,0.3
		c-0.2,0.4-0.4,0.8-0.5,1.2c-0.1,0.2-0.1,0.4-0.3,0.6c-0.2,0.2-0.4,0.4-0.8,0.2c-0.3-0.1-0.3-0.4-0.3-0.6c0.1-1.2,0.5-2.3,0.7-3.5
		c0.4-2.1,0.6-1.7-0.9-3.4C-58.1,148.1-58.4,147.4-58.3,146.3z"/>
	<path class="st29" d="M-38.4,146.1c0.1,1-0.1,1.9-0.7,2.6c-0.4,0.5-0.7,0.9-1.1,1.4c-0.3,0.3-0.4,0.7-0.3,1.1
		c0.3,1.3,0.6,2.7,0.8,4c0,0.2,0.1,0.5,0.1,0.7c0,0.3,0,0.5-0.3,0.6c-0.3,0.1-0.6,0-0.7-0.3c-0.1-0.2-0.2-0.4-0.3-0.6
		c-0.1-0.4-0.3-0.7-0.5-1.1c-0.1-0.2-0.2-0.4-0.4-0.4c-0.2,0-0.3,0.2-0.4,0.4c-0.2,0.5-0.3,1-0.4,1.5c-0.2,0.6-0.3,1.2-0.5,1.9
		c0,0.2-0.1,0.3-0.2,0.5c-0.2,0.4-0.4,0.5-0.8,0.4c-0.4-0.1-0.5-0.4-0.5-0.7c0-1.1,0.1-2.1,0.2-3.2c0-0.9,0.1-1.8,0.1-2.7
		c0-0.4-0.2-0.6-0.5-0.6c-0.6-0.1-1.1-0.2-1.7-0.2c-0.5,0-1-0.1-1.4-0.4c-0.2-0.1-0.4-0.3-0.3-0.6c0.1-0.3,0.3-0.2,0.5-0.2
		c2.2,0,4.3-0.5,6.4-1.4c0.8-0.4,1.4-0.9,2-1.4C-38.8,147.2-38.5,146.7-38.4,146.1z"/>
	<path class="st11" d="M-43.9,141.4c-0.2,0.4-0.4,0.6-0.9,0.6c-1.7,0.2-1.7,0.2-1.5,1.9c0.1,1.2,0.3,2.5,0.4,3.7c0,0.1,0,0.3,0,0.4
		c0,0.3-0.1,0.5-0.4,0.6s-0.6-0.1-0.7-0.4c-0.1-0.2-0.2-0.4-0.2-0.6c-0.2-0.6-0.4-1.3-0.8-1.9c-0.3-0.4-0.5-0.4-0.7,0
		c-0.3,0.6-0.5,1.2-0.7,1.8c-0.1,0.2-0.2,0.5-0.3,0.7c-0.2,0.3-0.4,0.5-0.7,0.4s-0.4-0.4-0.4-0.7c0.1-0.8,0.2-1.6,0.3-2.4
		c0.1-0.8,0.2-1.7,0.3-2.5c0.1-0.5-0.2-0.7-0.6-0.8c-0.4-0.1-0.7-0.1-1.1-0.2c-0.4,0-0.7-0.2-0.8-0.6
		C-51,140.7-46.4,140.7-43.9,141.4z"/>
	<path class="st8" d="M-41.1,148.5c0.3-0.7,0.6-1.4,0.5-2.2c0-0.5-0.1-0.9-0.6-1.1c-0.5-0.2-0.9,0.1-1.3,0.4
		c-0.8,0.9-1.1,1.9-0.8,3.1c0.1,0.2,0.1,0.4-0.1,0.6s-0.4,0.3-0.7,0.2c-0.2-0.1-0.4-0.3-0.4-0.5c0-0.3,0.1-0.5,0.2-0.7
		c0.6-1.4,1.1-2.8,1.7-4.2c0.3-0.7,0.2-0.9-0.4-1.4c-0.2-0.2-0.5-0.3-0.7-0.5c-0.1-0.1-0.2-0.3-0.1-0.5c0.1-0.2,0.3-0.1,0.4,0
		c1.4,0.4,2.8,1,3.9,2c0.5,0.5,0.9,1,1,1.8c0,0.1,0.1,0.3-0.1,0.4s-0.4,0-0.5-0.1c-0.2-0.2-0.4-0.4-0.6-0.6
		c-0.1-0.1-0.2-0.2-0.4-0.1c0.1-0.1,0.1,0,0.1,0.2c0.1,0.6,0.2,1.1,0.3,1.7c0.1,0.4,0,0.6-0.3,0.9
		C-40.3,148.1-40.6,148.4-41.1,148.5z"/>
	<path class="st26" d="M-55.6,148.5c-0.5-0.2-1-0.5-1.4-1c-0.1-0.2-0.1-0.3,0-0.5c0.1-0.6,0.2-1.1,0.3-1.7c0-0.2,0.1-0.4-0.1-0.5
		c-0.2-0.1-0.3,0.1-0.4,0.2c-0.2,0.2-0.3,0.3-0.5,0.5c-0.1,0.1-0.3,0.2-0.4,0.1c-0.2-0.1-0.1-0.3-0.1-0.4c0.1-0.7,0.4-1.2,0.9-1.7
		c1.2-1.1,2.6-1.7,4.1-2.1c0.3-0.1,0.3,0.1,0.3,0.3c0,0.3-0.3,0.5-0.5,0.6c-1,0.7-1,0.7-0.5,1.8c0.5,1.3,1,2.5,1.5,3.8
		c0.1,0.3,0.2,0.5,0.2,0.8s-0.1,0.5-0.3,0.5c-0.3,0.1-0.5,0-0.7-0.2s-0.1-0.4,0-0.6c0.4-1-0.2-2.7-1.1-3.3c-0.7-0.5-1.5-0.2-1.6,0.8
		c-0.1,0.7,0.1,1.3,0.3,1.9C-55.7,148.2-55.6,148.3-55.6,148.5z"/>
	<path class="st11" d="M-48.3,137.6c0.8,0,1.5,0.7,1.5,1.5c0,0.8-0.7,1.5-1.5,1.5c-0.8,0-1.5-0.7-1.5-1.5
		C-49.8,138.3-49.1,137.6-48.3,137.6z"/>
	<path class="st29" d="M-43.1,148c0.1-0.9,0.3-1.7,1-2.3c0.6-0.5,1.1-0.3,1.2,0.4c0.2,0.9-0.1,1.7-0.7,2.4c-0.3,0.3-0.6,0.6-1.1,0.5
		C-43.1,148.8-43,148.4-43.1,148z"/>
	<path class="st23" d="M-53.6,148c0,0.2,0,0.4-0.1,0.6c-0.2,0.5-0.6,0.6-1,0.4c-0.9-0.5-1.5-2.2-1.1-3.1c0.2-0.5,0.6-0.6,1.1-0.3
		C-53.9,146.2-53.6,147-53.6,148z"/>
	<path class="st26" d="M-54.6,140.1c0,0.7-0.2,1.3-0.7,1.7c-0.3,0.3-0.6,0.5-1,0.4s-0.5-0.5-0.5-0.9c-0.1-0.6,0.1-1.2,0.4-1.7
		c0.3-0.4,0.6-0.8,1.2-0.6C-54.6,139.1-54.6,139.6-54.6,140.1z"/>
	<path class="st8" d="M-39.9,141.1c0,0.1,0,0.3-0.1,0.5c-0.2,0.6-0.7,0.7-1.2,0.4c-0.7-0.5-1.1-1.7-0.8-2.5c0.2-0.6,0.7-0.8,1.2-0.4
		C-40.1,139.6-39.9,140.3-39.9,141.1z"/>
	<path class="st26" d="M-57.5,149.4c0.4,0.4,0.8,0.7,1,1.2c0.2,0.3,0.1,0.6-0.1,0.9c-0.2,0.2-0.4,0.2-0.6,0.1
		c-0.3-0.1-0.4-0.4-0.5-0.7C-57.8,150.4-57.6,150-57.5,149.4z"/>
</g>
<rect x="-112.3" y="138.2" class="st30" width="59.4" height="27.1"/>
<text transform="matrix(1 0 0 1 -95.9566 143.9404)" class="st2"><tspan x="0" y="0" class="st3 st4">5. </tspan><tspan x="8.9" y="0" class="st0 st4">Build </tspan></text>
<text transform="matrix(1 0 0 1 -101.9566 153.5404)" class="st0 st4">community </text>
<text transform="matrix(1 0 0 1 -109.7566 163.1404)" class="st0 st4">around lessons</text>
<rect x="61" y="138.2" class="st30" width="52.7" height="27"/>
<g id="BHnscn_1_">
	
		<image style="overflow:visible;enable-background:new    ;" width="236" height="236" id="BHnscn_2_" xlink:href="39F8D8DD627B9BE8.jpeg"  transform="matrix(8.899601e-02 0 0 8.899601e-02 28.6977 184.6888)">
	</image>
</g>
<path class="st42" d="M135.5,166.1c0.2-0.7,0.7-0.8,1.2-0.8c1-0.1,1.9-0.3,2.7-0.9c1-0.8,1.6-1.8,1.6-3.1c0-2.8,0-5.6,0-8.5
	c0-3.3,0-6.7,0-10c0-0.1,0-0.1,0-0.2c0.1-0.6,0-1.1-0.5-1.5c0,0-0.1-0.1-0.1-0.2c0-0.4,0-0.9,0-1.3c0-0.2,0.2-0.4,0.4-0.5
	c0.1-0.1,0.2-0.3,0.3-0.5c-3.5-0.2-6.8-0.5-10.2-0.7c1.8,6.1,3.7,12.1,5.5,18.2c0.4,0,0.9,0,1.3,0c-2,1.4-4.2,2.1-6.5,2.2
	c-2.7,0.1-5.2-0.6-7.5-2.1c0.5,0,0.9,0,1.4,0c1.8-6.1,3.7-12.2,5.5-18.3c-0.6,0-1.2-0.1-1.8-0.1c-0.5,0-1-0.1-1.5-0.1
	c-0.1,0-0.2,0.1-0.3,0.1c-0.2,0.3-0.5,0.4-0.8,0.3c-0.3-0.1-0.5-0.4-0.4-0.7c0-0.3,0.3-0.6,0.6-0.6c0.3,0,0.6,0.1,0.7,0.5
	c0,0,0,0.1,0,0.1c4.8-0.2,9.6-0.4,14.5-0.6c-0.1-0.2-0.2-0.4-0.4-0.6c-0.4-0.5-0.5-0.9-0.1-1.4c0.2-0.3,0.5-0.7,0.7-1
	c0,0,0,0,0.1-0.1c0.3,0.5,0.7,0.9,0.9,1.4c0.2,0.4,0.1,0.7-0.2,1c-0.2,0.2-0.3,0.4-0.4,0.6c0,0,0,0.1,0.1,0.1
	c4.8,0.2,9.5,0.4,14.3,0.6c0-0.1,0.1-0.2,0.1-0.3c0.1-0.3,0.4-0.4,0.7-0.3c0.3,0.1,0.5,0.3,0.5,0.6c0,0.3-0.1,0.5-0.4,0.7
	c-0.3,0.1-0.6,0-0.8-0.2c-0.1-0.2-0.3-0.2-0.5-0.2c-0.9,0.1-1.9,0.1-2.8,0.2c-0.2,0-0.4,0-0.6,0.1c1.8,6.1,3.7,12.1,5.5,18.2
	c0.4,0,0.9,0,1.3,0c-0.6,0.9-4,2-6.3,2.2c-2.8,0.2-5.4-0.6-7.8-2.1c0.5,0,0.9,0,1.4,0c1.8-6.1,3.7-12.1,5.5-18.2
	c-3.3,0.2-6.5,0.4-9.8,0.7c0.1,0.2,0.2,0.4,0.3,0.5c0.2,0.2,0.4,0.5,0.3,0.8c0,0.3,0,0.5,0,0.8c0,0.3-0.1,0.6-0.3,0.8
	c-0.1,0.1-0.2,0.3-0.2,0.5c0,6.2,0,12.5,0,18.7c0,0.7,0,1.5,0.4,2.1c0.7,1.5,2,2.2,3.6,2.4c0.3,0,0.7,0.1,1,0.2
	c0.3,0.1,0.6,0.3,0.6,0.7C144.2,166.1,139.8,166.1,135.5,166.1z"/>
<path class="st43" d="M117.7,170.4c0-13.7,0-27.4,0-41.1c16,0,32,0,47.9,0c0,13.7,0,27.4,0,41.1
	C149.7,170.4,133.7,170.4,117.7,170.4z M135.5,166.1c4.4,0,8.7,0,13.1,0c-0.1-0.4-0.3-0.6-0.6-0.7c-0.3-0.1-0.7-0.1-1-0.2
	c-1.6-0.2-2.9-0.9-3.6-2.4c-0.3-0.7-0.4-1.4-0.4-2.1c0-6.2,0-12.5,0-18.7c0-0.2,0-0.3,0.2-0.5c0.2-0.2,0.4-0.5,0.3-0.8
	c0-0.3,0-0.5,0-0.8c0-0.3-0.1-0.6-0.3-0.8c-0.1-0.1-0.2-0.3-0.3-0.5c3.3-0.2,6.5-0.4,9.8-0.7c-1.8,6.1-3.7,12.1-5.5,18.2
	c-0.5,0-1,0-1.4,0c2.4,1.6,5,2.3,7.8,2.1c2.3-0.1,5.7-1.3,6.3-2.2c-0.4,0-0.9,0-1.3,0c-1.8-6.1-3.7-12.1-5.5-18.2
	c0.2,0,0.4,0,0.6-0.1c0.9-0.1,1.9-0.1,2.8-0.2c0.2,0,0.4,0,0.5,0.2c0.1,0.3,0.5,0.3,0.8,0.2c0.3-0.1,0.4-0.4,0.4-0.7
	c0-0.3-0.2-0.5-0.5-0.6c-0.3-0.1-0.6,0-0.7,0.3c0,0.1-0.1,0.2-0.1,0.3c-4.8-0.2-9.6-0.4-14.3-0.6c0,0,0-0.1-0.1-0.1
	c0.1-0.2,0.3-0.4,0.4-0.6c0.3-0.3,0.4-0.7,0.2-1c-0.3-0.5-0.6-0.9-0.9-1.4c-0.1,0-0.1,0.1-0.1,0.1c-0.2,0.3-0.5,0.7-0.7,1
	c-0.4,0.5-0.3,0.9,0.1,1.4c0.1,0.2,0.2,0.4,0.4,0.6c-4.9,0.2-9.7,0.4-14.5,0.6c0,0,0-0.1,0-0.1c-0.1-0.3-0.4-0.5-0.7-0.5
	c-0.3,0-0.5,0.3-0.6,0.6c0,0.3,0.2,0.6,0.4,0.7c0.3,0.1,0.6,0,0.8-0.3c0.1-0.1,0.2-0.1,0.3-0.1c0.5,0,1,0.1,1.5,0.1
	c0.6,0,1.1,0.1,1.8,0.1c-1.8,6.1-3.7,12.2-5.5,18.3c-0.5,0-0.9,0-1.4,0c2.3,1.5,4.8,2.2,7.5,2.1c2.4-0.1,4.6-0.7,6.5-2.2
	c-0.4,0-0.9,0-1.3,0c-1.8-6.1-3.7-12.1-5.5-18.2c3.4,0.2,6.8,0.5,10.2,0.7c-0.1,0.2-0.2,0.4-0.3,0.5c-0.1,0.2-0.3,0.4-0.4,0.5
	c-0.1,0.4,0,0.9,0,1.3c0,0.1,0,0.1,0.1,0.2c0.4,0.4,0.6,0.9,0.5,1.5c0,0.1,0,0.1,0,0.2c0,3.3,0,6.7,0,10c0,2.8,0,5.6,0,8.5
	c0,1.3-0.6,2.3-1.6,3.1c-0.8,0.6-1.7,0.8-2.7,0.9C136.1,165.3,135.6,165.4,135.5,166.1z"/>
<path class="st42" d="M158.3,156c-1.8-6.1-3.7-12.1-5.5-18.1c0,0,0,0-0.1,0c-1.8,6-3.6,12.1-5.5,18.1C151,156,154.6,156,158.3,156z"
	/>
<path class="st42" d="M136.3,156c-1.8-6.1-3.7-12.1-5.5-18.1c0,0,0,0-0.1,0c-1.8,6-3.6,12.1-5.5,18.1C128.9,156,132.6,156,136.3,156
	z"/>
<path class="st43" d="M158.3,156c-3.7,0-7.3,0-11,0c1.8-6,3.7-12.1,5.5-18.1c0,0,0,0,0.1,0C154.6,144,156.5,150,158.3,156z"/>
<path class="st43" d="M136.3,156c-3.7,0-7.3,0-11,0c1.8-6,3.7-12.1,5.5-18.1c0,0,0,0,0.1,0C132.6,144,134.4,150,136.3,156z"/>
<text transform="matrix(1 0 0 1 120.7213 155.1027)" class="st44 st45">in class</text>
<text transform="matrix(1 0 0 1 143.8463 155.2277)" class="st44 st45">after class</text>
<g>
	<polygon class="st46" points="54.4,164.3 54.4,147.7 41.5,147.8 41.4,164.3 	"/>
	<path class="st47" d="M52.2,151.2c-1-0.9-1.3-1.1-1.5-1c-0.3,0.1,0.3,1,0,1.5c-0.1,0.5-0.9,0.3-1,0.2c-0.3-0.1-0.3-0.2-0.9-0.5
		c-0.6-0.3-1.5-0.7-1.6-0.3c0,0.3,0.3,0.8,0.3,1.1c-0.1,0.5-1.3-0.3-1.8-0.6c-0.7-0.5-1.2-0.9-1.3-0.9c-0.1,0-0.1,0.4,0.4,1.9"/>
	<path class="st48" d="M52.3,154.1c-1.1-0.9-1.4-1.1-1.5-1c-0.3,0.1,0.3,1,0,1.5c-0.2,0.5-0.9,0.3-1.1,0.2c-0.3-0.1-0.3-0.2-0.9-0.5
		c-0.6-0.3-1.5-0.7-1.7-0.3c0,0.3,0.3,0.8,0.3,1.1c-0.2,0.5-1.4-0.3-1.8-0.6c-0.8-0.5-1.2-0.9-1.4-0.9c-0.2,0-0.2,0.4,0.5,1.9"/>
	<rect x="44.4" y="159.1" class="st30" width="8.1" height="3.5"/>
	<text transform="matrix(1 0 0 1 45.4424 161.9227)" class="st44 st49">DOI</text>
</g>
<text transform="matrix(1 0 0 1 73.3233 143.9405)" class="st2"><tspan x="0" y="0" class="st3 st4">7.</tspan><tspan x="6.7" y="0" class="st0 st4"> Evaluate </tspan></text>
<text transform="matrix(1 0 0 1 75.3233 153.5405)" class="st0 st4">lessons at </text>
<text transform="matrix(1 0 0 1 68.0233 163.1405)" class="st0 st4">several scales</text>
<g>
	<g>
		<g class="st2">
			<g>
				<polygon class="st50" points="26.3,118.4 25.4,117.9 27.8,114.8 28.7,115.3 				"/>
			</g>
			<g>
				<polygon class="st51" points="27.1,122 26.2,121.5 25.4,117.9 26.3,118.4 				"/>
			</g>
			<g>
				<polygon class="st52" points="23.9,120.9 23,120.4 26.2,121.5 27.1,122 				"/>
			</g>
			<g>
				<polygon class="st53" points="25.2,115.4 24.3,115 27.8,114.8 28.7,115.3 				"/>
			</g>
			<g>
				<polygon class="st54" points="25.4,115 24.5,114.5 28.7,114.3 29.6,114.8 				"/>
			</g>
			<g>
				<polygon class="st55" points="20.9,123.3 19.9,122.8 23,120.4 23.9,120.9 				"/>
			</g>
			<g>
				<polygon class="st56" points="20.9,123.3 20,122.8 20.3,119 21.3,119.5 				"/>
			</g>
			<g>
				<polygon class="st57" points="20.3,124.3 19.4,123.8 19.9,119.2 20.8,119.7 				"/>
			</g>
			<g>
				<polygon class="st58" points="25.2,115.4 24.3,115 22.5,111.9 23.4,112.4 				"/>
			</g>
			<g>
				<polygon class="st59" points="22.1,116.1 21.1,115.6 22.5,111.9 23.4,112.4 				"/>
			</g>
			<g>
				<polygon class="st60" points="21.7,115.7 20.8,115.2 22.5,110.8 23.4,111.3 				"/>
			</g>
			<g>
				<polygon class="st61" points="23.4,112.4 25.2,115.4 28.7,115.3 26.3,118.4 27.1,122 23.9,120.9 20.9,123.3 21.3,119.5 
					18.6,117.3 22.1,116.1 				"/>
			</g>
			<g>
				<polygon class="st62" points="21.3,119.5 20.3,119 17.7,116.8 18.6,117.3 				"/>
			</g>
			<g>
				<polygon class="st63" points="18.6,117.3 17.7,116.8 21.1,115.6 22.1,116.1 				"/>
			</g>
			<g>
				<polygon class="st64" points="17.6,117.2 16.7,116.7 20.8,115.2 21.7,115.7 				"/>
			</g>
			<g>
				<polygon class="st65" points="20.8,119.7 19.9,119.2 16.7,116.7 17.6,117.2 				"/>
			</g>
			<g>
				<path class="st66" d="M29.6,114.8l-2.8,3.7l0.9,4.3l-3.8-1.3l-3.6,2.9l0.5-4.6l-3.2-2.5l4.1-1.5l1.6-4.4l2.1,3.6L29.6,114.8z
					 M27.1,122l-0.8-3.6l2.4-3.2l-3.5,0.2l-1.7-3.1l-1.4,3.7l-3.5,1.3l2.7,2.1l-0.4,3.8l3-2.4L27.1,122"/>
			</g>
		</g>
	</g>
</g>
<g>
	<g>
		<g class="st2">
			<g>
				<polygon class="st50" points="41.2,118.4 40.2,117.9 42.6,114.8 43.5,115.3 				"/>
			</g>
			<g>
				<polygon class="st51" points="41.9,122 41,121.5 40.2,117.9 41.2,118.4 				"/>
			</g>
			<g>
				<polygon class="st67" points="38.7,120.9 37.8,120.4 41,121.5 41.9,122 				"/>
			</g>
			<g>
				<polygon class="st53" points="40,115.4 39.1,115 42.6,114.8 43.5,115.3 				"/>
			</g>
			<g>
				<polygon class="st54" points="40.3,115 39.4,114.5 43.6,114.3 44.5,114.8 				"/>
			</g>
			<g>
				<polygon class="st55" points="35.7,123.3 34.8,122.8 37.8,120.4 38.7,120.9 				"/>
			</g>
			<g>
				<polygon class="st56" points="35.7,123.3 34.8,122.8 35.2,119 36.1,119.5 				"/>
			</g>
			<g>
				<polygon class="st57" points="35.2,124.3 34.3,123.8 34.7,119.2 35.6,119.7 				"/>
			</g>
			<g>
				<polygon class="st58" points="40,115.4 39.1,115 37.4,111.9 38.3,112.4 				"/>
			</g>
			<g>
				<polygon class="st59" points="36.9,116.1 36,115.6 37.4,111.9 38.3,112.4 				"/>
			</g>
			<g>
				<polygon class="st60" points="36.6,115.7 35.7,115.2 37.3,110.8 38.2,111.3 				"/>
			</g>
			<g>
				<polygon class="st68" points="36.1,119.5 35.2,119 32.5,116.8 33.4,117.3 				"/>
			</g>
			<g>
				<polygon class="st63" points="33.4,117.3 32.5,116.8 36,115.6 36.9,116.1 				"/>
			</g>
			<g>
				<path class="st66" d="M44.5,114.8l-2.8,3.7l0.9,4.3l-3.8-1.3l-3.6,2.8l0.5-4.6l-3.2-2.5l4.1-1.5l1.6-4.4l2.1,3.6L44.5,114.8z
					 M41.9,122l-0.8-3.6l2.4-3.2l-3.5,0.2l-1.7-3.1l-1.4,3.7l-3.5,1.3l2.7,2.1l-0.4,3.8l3-2.4L41.9,122"/>
			</g>
			<g>
				<polygon class="st61" points="38.3,112.4 40,115.4 43.5,115.3 41.2,118.4 41.9,122 38.7,120.9 35.7,123.3 36.1,119.5 
					33.4,117.3 36.9,116.1 				"/>
			</g>
			<g>
				<polygon class="st64" points="32.5,117.2 31.6,116.7 35.7,115.2 36.6,115.7 				"/>
			</g>
			<g>
				<polygon class="st65" points="35.6,119.7 34.7,119.2 31.6,116.7 32.5,117.2 				"/>
			</g>
		</g>
	</g>
</g>
<g>
	<g>
		<g class="st2">
			<g>
				<polygon class="st51" points="56.8,122 55.9,121.5 55.1,117.9 56,118.4 				"/>
			</g>
			<g>
				<polygon class="st50" points="56,118.4 55.1,117.9 57.5,114.8 58.4,115.3 				"/>
			</g>
			<g>
				<polygon class="st52" points="53.6,120.9 52.7,120.4 55.9,121.5 56.8,122 				"/>
			</g>
			<g>
				<polygon class="st53" points="54.9,115.4 54,115 57.5,114.8 58.4,115.3 				"/>
			</g>
			<g>
				<polygon class="st54" points="55.1,115 54.2,114.5 58.4,114.3 59.3,114.8 				"/>
			</g>
			<g>
				<polygon class="st55" points="50.6,123.3 49.7,122.8 52.7,120.4 53.6,120.9 				"/>
			</g>
			<g>
				<polygon class="st69" points="50.6,123.3 49.7,122.8 50.1,119 51,119.5 				"/>
			</g>
			<g>
				<polygon class="st57" points="50,124.3 49.1,123.8 49.6,119.2 50.5,119.7 				"/>
			</g>
			<g>
				<polygon class="st58" points="54.9,115.4 54,115 52.2,111.9 53.1,112.4 				"/>
			</g>
			<g>
				<polygon class="st59" points="51.8,116.1 50.8,115.6 52.2,111.9 53.1,112.4 				"/>
			</g>
			<g>
				<polygon class="st60" points="51.4,115.7 50.5,115.2 52.2,110.8 53.1,111.3 				"/>
			</g>
			<g>
				<polygon class="st61" points="53.1,112.4 54.9,115.4 58.4,115.3 56,118.4 56.8,122 53.6,120.9 50.6,123.3 51,119.5 48.3,117.3 
					51.8,116.1 				"/>
			</g>
			<g>
				<polygon class="st68" points="51,119.5 50.1,119 47.4,116.8 48.3,117.3 				"/>
			</g>
			<g>
				<polygon class="st63" points="48.3,117.3 47.4,116.8 50.8,115.6 51.8,116.1 				"/>
			</g>
			<g>
				<polygon class="st64" points="47.3,117.2 46.4,116.7 50.5,115.2 51.4,115.7 				"/>
			</g>
			<g>
				<polygon class="st65" points="50.5,119.7 49.6,119.2 46.4,116.7 47.3,117.2 				"/>
			</g>
			<g>
				<path class="st66" d="M59.3,114.8l-2.8,3.7l0.9,4.3l-3.8-1.3l-3.6,2.9l0.5-4.6l-3.2-2.5l4.1-1.5l1.6-4.4l2.1,3.6L59.3,114.8z
					 M56.8,122l-0.8-3.6l2.4-3.2l-3.5,0.2l-1.7-3.1l-1.4,3.7l-3.5,1.3l2.7,2.1l-0.4,3.8l3-2.4L56.8,122"/>
			</g>
		</g>
	</g>
</g>
<g>
	<g>
		<g class="st2">
			<g>
				<polygon class="st50" points="70.9,118.4 70,117.9 72.3,114.8 73.2,115.3 				"/>
			</g>
			<g>
				<polygon class="st51" points="71.7,122 70.7,121.5 70,117.9 70.9,118.4 				"/>
			</g>
			<g>
				<polygon class="st52" points="68.4,120.9 67.5,120.4 70.7,121.5 71.7,122 				"/>
			</g>
			<g>
				<polygon class="st53" points="69.7,115.4 68.8,115 72.3,114.8 73.2,115.3 				"/>
			</g>
			<g>
				<polygon class="st54" points="70,115 69.1,114.5 73.3,114.3 74.2,114.8 				"/>
			</g>
			<g>
				<polygon class="st55" points="65.4,123.3 64.5,122.8 67.5,120.4 68.4,120.9 				"/>
			</g>
			<g>
				<polygon class="st56" points="65.4,123.3 64.5,122.8 64.9,119 65.8,119.5 				"/>
			</g>
			<g>
				<polygon class="st57" points="64.9,124.3 64,123.8 64.4,119.2 65.4,119.7 				"/>
			</g>
			<g>
				<polygon class="st58" points="69.7,115.4 68.8,115 67.1,111.9 68,112.4 				"/>
			</g>
			<g>
				<polygon class="st59" points="66.6,116.1 65.7,115.6 67.1,111.9 68,112.4 				"/>
			</g>
			<g>
				<polygon class="st60" points="66.3,115.7 65.4,115.2 67,110.8 67.9,111.3 				"/>
			</g>
			<g>
				<polygon class="st61" points="68,112.4 69.7,115.4 73.2,115.3 70.9,118.4 71.7,122 68.5,120.9 65.4,123.3 65.8,119.5 
					63.2,117.3 66.6,116.1 				"/>
			</g>
			<g>
				<polygon class="st68" points="65.8,119.5 64.9,119 62.2,116.8 63.2,117.3 				"/>
			</g>
			<g>
				<polygon class="st63" points="63.2,117.3 62.2,116.8 65.7,115.6 66.6,116.1 				"/>
			</g>
			<g>
				<polygon class="st64" points="62.2,117.2 61.3,116.7 65.4,115.2 66.3,115.7 				"/>
			</g>
			<g>
				<polygon class="st65" points="65.4,119.7 64.4,119.2 61.3,116.7 62.2,117.2 				"/>
			</g>
			<g>
				<path class="st66" d="M74.2,114.8l-2.8,3.7l0.9,4.3l-3.8-1.3l-3.6,2.9l0.5-4.6l-3.2-2.5l4.1-1.5l1.6-4.4L70,115L74.2,114.8z
					 M71.7,122l-0.8-3.6l2.4-3.2l-3.5,0.2l-1.7-3.1l-1.4,3.7l-3.5,1.3l2.7,2.1l-0.4,3.8l3-2.4L71.7,122"/>
			</g>
		</g>
	</g>
</g>
<g>
	<g>
		<g class="st2">
			<g>
				<polygon class="st51" points="86.5,122 85.6,121.5 84.8,117.9 85.7,118.4 				"/>
			</g>
			<g>
				<polygon class="st50" points="85.7,118.4 84.8,117.9 87.2,114.8 88.1,115.3 				"/>
			</g>
			<g>
				<polygon class="st52" points="83.3,120.9 82.4,120.4 85.6,121.5 86.5,122 				"/>
			</g>
			<g>
				<polygon class="st53" points="84.6,115.4 83.7,115 87.2,114.8 88.1,115.3 				"/>
			</g>
			<g>
				<polygon class="st54" points="84.9,115 83.9,114.5 88.1,114.3 89,114.8 				"/>
			</g>
			<g>
				<polygon class="st55" points="80.3,123.3 79.4,122.8 82.4,120.4 83.3,120.9 				"/>
			</g>
			<g>
				<polygon class="st69" points="80.3,123.3 79.4,122.8 79.8,119 80.7,119.5 				"/>
			</g>
			<g>
				<polygon class="st57" points="79.7,124.3 78.8,123.8 79.3,119.2 80.2,119.7 				"/>
			</g>
			<g>
				<polygon class="st58" points="84.6,115.4 83.7,115 81.9,111.9 82.8,112.4 				"/>
			</g>
			<g>
				<polygon class="st59" points="81.5,116.1 80.6,115.6 81.9,111.9 82.8,112.4 				"/>
			</g>
			<g>
				<polygon class="st60" points="81.1,115.7 80.2,115.2 81.9,110.8 82.8,111.3 				"/>
			</g>
			<g>
				<polygon class="st68" points="80.7,119.5 79.8,119 77.1,116.8 78,117.3 				"/>
			</g>
			<g>
				<polygon class="st63" points="78,117.3 77.1,116.8 80.6,115.6 81.5,116.1 				"/>
			</g>
			<g>
				<path class="st66" d="M89,114.8l-2.8,3.7l1,4.3l-3.8-1.3l-3.6,2.9l0.5-4.6l-3.2-2.5l4.1-1.5l1.6-4.4l2.1,3.6L89,114.8z
					 M86.5,122l-0.8-3.6l2.4-3.2l-3.5,0.2l-1.7-3.1l-1.4,3.7l-3.5,1.3l2.7,2.1l-0.4,3.8l3-2.4L86.5,122"/>
			</g>
			<g>
				<polygon class="st61" points="82.8,112.4 84.6,115.4 88.1,115.3 85.7,118.4 86.5,122 83.3,120.9 80.3,123.3 80.7,119.5 
					78,117.3 81.5,116.1 				"/>
			</g>
			<g>
				<polygon class="st64" points="77,117.2 76.1,116.7 80.2,115.2 81.1,115.7 				"/>
			</g>
			<g>
				<polygon class="st65" points="80.2,119.7 79.3,119.2 76.1,116.7 77,117.2 				"/>
			</g>
		</g>
	</g>
</g>
</svg>
