<?xml version="1.0" encoding="utf-8"?>
<!-- Generator: Adobe Illustrator 19.1.0, SVG Export Plug-In . SVG Version: 6.00 Build 0)  -->
<svg version="1.1" id="Layer_1" xmlns="http://www.w3.org/2000/svg" xmlns:xlink="http://www.w3.org/1999/xlink" x="0px" y="0px"
	 viewBox="172 58.7 374 245" style="enable-background:new 172 58.7 374 245;" xml:space="preserve">
<style type="text/css">
	.st0{font-family:'Arial-BoldMT';}
	.st1{font-size:10px;}
	.st2{font-family:'ArialMT';}
	.st3{font-size:8px;}
	.st4{fill:none;stroke:#000000;stroke-width:0.5;stroke-miterlimit:10;}
	.st5{fill:none;stroke:#000000;stroke-width:0.5;stroke-miterlimit:10;stroke-dasharray:1,2;}
	.st6{fill:none;stroke:#000000;stroke-width:0.5444;stroke-miterlimit:10;stroke-dasharray:3.8498,1.9249,0.9625,1.9249;}
	.st7{fill:none;stroke:#000000;stroke-width:0.5373;stroke-miterlimit:10;stroke-dasharray:0.95,1.9;}
	.st8{fill:none;stroke:#000000;stroke-width:0.3846;stroke-miterlimit:10;}
	.st9{fill:none;stroke:#000000;stroke-width:0.5656;stroke-miterlimit:10;}
	.st10{fill:none;stroke:#000000;stroke-width:0.3849;stroke-miterlimit:10;stroke-dasharray:1,2;}
	.st11{fill:none;stroke:#000000;stroke-width:0.3876;stroke-miterlimit:10;}
	.st12{fill:none;stroke:#000000;stroke-width:0.7679;stroke-miterlimit:10;}
	.st13{fill:none;stroke:#000000;stroke-width:0.7747;stroke-miterlimit:10;}
	.st14{fill:none;stroke:#000000;stroke-width:0.75;stroke-miterlimit:10;}
	.st15{fill:none;stroke:#000000;stroke-width:0.75;stroke-miterlimit:10;stroke-dasharray:4.2571,4.2571;}
	.st16{fill:none;stroke:#000000;stroke-width:0.75;stroke-miterlimit:10;stroke-dasharray:4.4576,4.4576;}
</style>
<text transform="matrix(1 0 0 1 220.1265 71.3589)" class="st0 st1">Workflow for collaborative open source lesson development</text>
<text transform="matrix(1 0 0 1 220.595 138.4621)"><tspan x="0" y="0" class="st2 st3">Recruit community to assist in </tspan><tspan x="31.3" y="9.6" class="st2 st3">development</tspan></text>
<text transform="matrix(1 0 0 1 373.4694 138.4621)"><tspan x="0" y="0" class="st2 st3">Outline and draft lesson materials </tspan><tspan x="25.3" y="9.6" class="st2 st3">via community input</tspan></text>
<rect x="213.3" y="125" class="st4" width="120.1" height="32.3"/>
<rect x="367.6" y="125" class="st5" width="133.2" height="32.3"/>
<text transform="matrix(1 0 0 1 460.0854 270.7789)"><tspan x="0" y="0" class="st2 st3">Refer to outside </tspan><tspan x="4.9" y="9.6" class="st2 st3">resources for </tspan><tspan x="-3.3" y="19.2" class="st2 st3">continued learning</tspan></text>
<text transform="matrix(1 0 0 1 187.3239 265.9791)"><tspan x="0" y="0" class="st2 st3">Modify materials for use </tspan><tspan x="-1.1" y="9.6" class="st2 st3">by a different community </tspan><tspan x="4.2" y="19.2" class="st2 st3">for additional learning </tspan><tspan x="25.8" y="28.8" class="st2 st3">objectives</tspan></text>
<text transform="matrix(1 0 0 1 317.5442 280.3786)" class="st2 st3">Publish stable versions </text>
<rect x="440.8" y="252.8" class="st6" width="97.4" height="47.2"/>
<rect x="182.2" y="252.8" class="st7" width="97.4" height="46"/>
<rect x="303.6" y="268.4" class="st8" width="116" height="19.8"/>
<text transform="matrix(1 0 0 1 468.0893 193.2214)"><tspan x="0" y="0" class="st2 st3">Incorporate </tspan><tspan x="-5.1" y="9.6" class="st2 st3">feedback from </tspan><tspan x="-14.4" y="19.2" class="st2 st3">instructors teaching </tspan><tspan x="-7.6" y="28.8" class="st2 st3">lesson materials</tspan></text>
<text transform="matrix(1 0 0 1 197.3197 193.2211)"><tspan x="0" y="0" class="st2 st3">Teach and mentor </tspan><tspan x="-1.1" y="9.6" class="st2 st3">lesson contributors </tspan><tspan x="15.3" y="19.2" class="st2 st3">to sustain </tspan><tspan x="10.7" y="28.8" class="st2 st3">development</tspan></text>
<text transform="matrix(1 0 0 1 309.318 208.1206)" class="st2 st3">Update materials continually</text>
<rect x="182.2" y="180" class="st9" width="97.4" height="51"/>
<rect x="440.8" y="180" class="st9" width="97.4" height="51"/>
<rect x="303.4" y="196.1" class="st10" width="116.2" height="19.8"/>
<text transform="matrix(1 0 0 1 316.8705 96.5376)" class="st2 st3">Decide to develop lessons</text>
<rect x="305.8" y="85.4" class="st11" width="117.8" height="19.8"/>
<g>
	<g>
		<line class="st12" x1="360.5" y1="105.2" x2="273" y2="123.8"/>
		<g>
			<path d="M268.5,124.7c2-1.2,4.3-3.2,5.7-4.9l-0.5,3.8l2,3.3C273.7,125.9,270.8,125.1,268.5,124.7z"/>
		</g>
	</g>
</g>
<g>
	<g>
		<line class="st13" x1="359.5" y1="105.7" x2="437.4" y2="124.2"/>
		<g>
			<path d="M442,125.2c-2.3,0.3-5.3,1-7.3,2.1l2.1-3.3l-0.4-3.9C437.7,122,440,123.9,442,125.2z"/>
		</g>
	</g>
</g>
<g>
	<g>
		<line class="st14" x1="261.5" y1="162.3" x2="261.5" y2="174.2"/>
		<g>
			<path d="M261.5,157.7c-0.8,2.1-2.1,4.8-3.6,6.4l3.6-1.3l3.6,1.3C263.6,162.5,262.3,159.9,261.5,157.7z"/>
		</g>
		<g>
			<path d="M261.5,178.7c-0.8-2.1-2.1-4.8-3.6-6.4l3.6,1.3l3.6-1.3C263.6,174,262.3,176.6,261.5,178.7z"/>
		</g>
	</g>
</g>
<g>
	<g>
		<line class="st14" x1="387.5" y1="157.2" x2="387.5" y2="191.2"/>
		<g>
			<path d="M387.5,195.7c-0.8-2.1-2.1-4.8-3.6-6.4l3.6,1.3l3.6-1.3C389.6,191,388.3,193.6,387.5,195.7z"/>
		</g>
	</g>
</g>
<g>
	<g>
		<line class="st14" x1="358" y1="215.2" x2="358" y2="263.7"/>
		<g>
			<path d="M358,268.2c-0.8-2.1-2.1-4.8-3.6-6.4l3.6,1.3l3.6-1.3C360.1,263.5,358.8,266.1,358,268.2z"/>
		</g>
	</g>
</g>
<g>
	<g>
		<line class="st15" x1="358" y1="216.2" x2="237.8" y2="251.5"/>
		<g>
			<path d="M233.5,252.7c1.8-1.4,4-3.4,5.1-5.2l-0.2,3.8l2.2,3.1C238.7,253.4,235.8,252.9,233.5,252.7z"/>
		</g>
	</g>
</g>
<g>
	<g>
		<line class="st16" x1="358" y1="216.2" x2="488.1" y2="251.6"/>
		<g>
			<path d="M492.5,252.7c-2.3,0.2-5.2,0.8-7.1,1.8l2.2-3.1l-0.3-3.8C488.5,249.4,490.7,251.4,492.5,252.7z"/>
		</g>
	</g>
</g>
<g>
	<g>
		<line class="st14" x1="440.5" y1="206" x2="425" y2="206"/>
		<g>
			<path d="M420.5,206c2.1-0.8,4.8-2.1,6.4-3.6l-1.3,3.6l1.3,3.6C425.3,208.1,422.6,206.8,420.5,206z"/>
		</g>
	</g>
</g>
<g>
	<g>
		<line class="st14" x1="281" y1="206" x2="299" y2="206"/>
		<g>
			<path d="M303.5,206c-2.1,0.8-4.8,2.1-6.4,3.6l1.3-3.6l-1.3-3.6C298.7,203.8,301.4,205.2,303.5,206z"/>
		</g>
	</g>
</g>
<g>
	<g>
		<line class="st14" x1="492" y1="225.7" x2="492" y2="248.2"/>
		<g>
			<path d="M492,252.7c-0.8-2.1-2.1-4.8-3.6-6.4l3.6,1.3l3.6-1.3C494.1,248,492.8,250.6,492,252.7z"/>
		</g>
	</g>
</g>
</svg>
